<?xml version="1.0" standalone="no"?>
<!DOCTYPE svg PUBLIC "-//W3C//DTD SVG 20010904//EN"
 "http://www.w3.org/TR/2001/REC-SVG-20010904/DTD/svg10.dtd">
<svg version="1.0" xmlns="http://www.w3.org/2000/svg"
 width="1000.000000pt" height="1000.000000pt" viewBox="0 0 1000.000000 1000.000000"
 preserveAspectRatio="xMidYMid meet">
<metadata>
Created by potrace 1.14, written by Peter Selinger 2001-2017
</metadata>
<g transform="translate(0.000000,1000.000000) scale(0.100000,-0.100000)"
fill="#000000" stroke="none">
<path d="M4866 9775 c-15 -7 -22 -22 -24 -49 -2 -21 -21 -72 -43 -114 -28 -54
-39 -87 -39 -119 0 -27 4 -42 10 -38 6 3 10 20 10 37 0 17 3 29 6 25 4 -3 3
-37 -2 -74 -6 -55 -9 -62 -14 -38 -7 36 -8 35 -40 -105 -13 -52 -27 -102 -32
-110 -8 -12 -9 -12 -4 2 8 28 -14 32 -40 7 -26 -24 -25 -56 2 -72 8 -4 14 -15
14 -22 0 -10 11 -16 33 -17 62 -2 85 -5 262 -34 50 -7 106 -16 125 -18 125
-16 356 -114 426 -180 29 -27 55 -46 64 -46 6 0 10 -6 10 -13 0 -7 14 -23 31
-37 17 -14 46 -40 63 -59 71 -76 87 -91 95 -91 5 0 11 -8 15 -17 5 -16 50 -78
88 -123 7 -8 31 -40 52 -70 22 -30 50 -63 63 -73 13 -10 30 -25 37 -33 8 -8
19 -14 25 -14 6 0 11 -7 11 -15 0 -8 7 -15 15 -15 8 0 15 -4 15 -9 0 -5 20
-31 45 -57 25 -27 45 -55 45 -61 0 -7 7 -13 15 -13 8 0 15 -7 15 -15 0 -8 9
-20 20 -27 11 -7 20 -16 20 -21 0 -4 18 -35 40 -67 22 -32 40 -64 40 -69 0 -6
4 -11 8 -11 5 0 19 -24 33 -52 13 -29 27 -55 30 -58 3 -3 10 -15 14 -28 3 -13
12 -21 18 -19 8 2 11 30 10 83 0 43 1 72 4 64 3 -8 12 -28 19 -45 8 -16 19
-52 24 -80 6 -27 16 -68 21 -90 13 -52 36 -196 49 -315 6 -52 15 -122 20 -155
5 -33 14 -136 20 -230 6 -93 16 -206 21 -250 17 -127 23 -506 10 -640 -23
-249 -39 -343 -87 -515 -25 -93 -95 -312 -115 -362 -42 -107 -64 -157 -100
-236 -41 -88 -47 -108 -27 -96 7 4 8 3 4 -5 -4 -6 -11 -9 -16 -6 -5 3 -27 -30
-48 -72 -22 -43 -53 -102 -71 -131 -17 -29 -31 -56 -31 -60 0 -4 -11 -19 -25
-34 -14 -15 -25 -34 -25 -43 0 -8 -5 -15 -10 -15 -6 0 -14 -8 -17 -17 -7 -18
-53 -94 -63 -103 -3 -3 -14 -18 -24 -35 -21 -33 -201 -273 -240 -320 -22 -26
-25 -28 -26 -10 -1 11 -4 15 -6 8 -3 -7 -11 -10 -19 -7 -19 8 -30 -33 -13 -53
11 -14 10 -15 -10 -9 -43 14 -101 -52 -59 -67 6 -2 9 -8 5 -12 -4 -4 -14 -3
-21 3 -10 9 -19 7 -35 -9 -12 -11 -22 -23 -22 -27 0 -4 -14 -15 -30 -24 -17
-9 -35 -29 -40 -43 -5 -14 -17 -25 -28 -25 -20 0 -52 -29 -52 -47 0 -6 -4 -13
-9 -15 -8 -3 -103 -86 -181 -158 -77 -71 -104 -93 -214 -176 -65 -49 -128 -96
-140 -104 -12 -8 -67 -49 -122 -91 -129 -99 -228 -163 -310 -202 -17 -8 -35
-20 -38 -26 -4 -6 -16 -11 -27 -11 -10 0 -19 -4 -19 -10 0 -9 -41 -34 -102
-62 -16 -7 -28 -16 -28 -20 0 -4 -5 -8 -11 -8 -16 0 -81 -31 -101 -48 -10 -8
-18 -12 -18 -9 0 4 -35 -11 -77 -34 -43 -22 -87 -42 -98 -45 -23 -4 -79 -27
-145 -57 -25 -12 -52 -22 -61 -24 -8 -1 -29 -9 -45 -18 -16 -8 -34 -15 -40
-15 -5 0 -29 -9 -51 -20 -23 -11 -63 -27 -90 -36 -26 -9 -70 -27 -97 -40 -28
-13 -54 -24 -60 -24 -5 0 -28 -8 -50 -19 -23 -10 -70 -31 -106 -46 -61 -25
-104 -44 -190 -83 -19 -8 -51 -23 -71 -33 -20 -10 -45 -20 -55 -22 -10 -2 -50
-18 -89 -36 -38 -18 -95 -44 -125 -58 -30 -13 -63 -28 -72 -34 -25 -13 -41
-21 -133 -63 -44 -21 -87 -42 -95 -46 -8 -5 -49 -27 -90 -48 -162 -84 -215
-113 -230 -126 -8 -7 -39 -26 -67 -42 -29 -16 -53 -32 -53 -36 0 -5 -5 -8 -11
-8 -16 0 -136 -102 -147 -126 -6 -12 -8 -31 -6 -42 7 -23 -21 -53 -41 -46 -20
8 -55 -14 -100 -64 -25 -27 -50 -45 -67 -47 -44 -5 -49 -13 -42 -65 6 -43 2
-58 -30 -123 -30 -63 -36 -85 -36 -142 0 -39 6 -78 14 -93 26 -48 55 -122 62
-160 7 -34 6 -36 -9 -23 -15 12 -17 11 -16 -5 1 -48 40 -80 194 -164 44 -24
83 -48 86 -53 3 -5 8 -8 10 -7 7 3 53 -19 94 -45 22 -14 47 -28 55 -31 8 -3
35 -14 60 -23 25 -10 86 -30 135 -45 50 -15 117 -40 150 -56 51 -24 246 -80
295 -84 9 -1 20 -5 25 -8 12 -7 55 -15 140 -25 72 -9 524 -8 650 0 157 11 229
18 250 23 11 2 36 6 55 8 19 3 53 7 75 11 22 3 63 7 90 8 28 2 55 6 60 9 9 5
84 17 150 23 11 1 27 5 35 8 29 11 116 29 150 31 14 1 30 4 35 7 6 3 39 12 75
18 36 7 85 19 110 26 25 7 83 23 130 35 47 13 144 42 215 65 72 23 153 49 180
58 28 9 97 34 155 57 58 23 118 45 133 50 16 5 35 14 42 20 7 6 23 13 35 15
12 2 41 13 64 24 22 10 73 33 111 51 124 57 455 222 460 230 3 5 26 18 53 31
26 12 61 33 79 45 17 13 39 24 47 24 9 0 16 5 16 10 0 6 5 10 11 10 10 0 129
68 139 81 3 3 12 9 20 13 25 12 134 80 199 125 13 9 34 23 46 31 138 94 228
156 275 191 19 14 96 71 170 126 74 55 141 107 149 116 7 10 19 17 25 17 12 0
49 31 170 142 70 65 110 105 286 288 50 52 102 112 140 161 14 17 45 56 70 85
25 30 60 71 78 93 17 21 32 41 32 44 0 6 123 174 145 198 8 9 15 19 15 23 0 5
11 21 25 38 14 16 25 36 25 44 0 8 5 14 10 14 6 0 13 8 17 18 3 9 16 31 28 47
20 27 76 119 132 213 11 20 28 48 36 62 32 53 190 363 222 435 7 17 25 55 39
86 14 31 26 61 26 68 0 7 5 22 12 34 13 24 28 63 82 217 20 58 41 113 46 122
6 10 10 27 10 39 0 11 5 30 11 41 12 22 23 63 55 193 9 39 25 99 35 135 23 82
53 261 89 530 5 41 13 206 16 365 9 388 -2 540 -62 840 -7 39 -16 93 -20 120
-3 28 -14 84 -24 125 -10 41 -24 104 -31 140 -6 36 -15 70 -19 75 -4 6 -11 31
-14 57 -4 26 -11 50 -15 53 -5 2 -11 19 -15 37 -8 41 -68 166 -93 193 -21 22
-113 173 -113 185 0 4 -7 13 -15 20 -8 7 -15 21 -15 31 0 11 -4 19 -9 19 -5 0
-24 23 -41 51 -42 64 -67 94 -160 188 -81 82 -158 151 -167 151 -4 0 -21 11
-39 25 -18 14 -37 25 -43 25 -6 0 -11 4 -11 9 0 5 -12 14 -27 20 -16 6 -46 21
-68 34 -41 24 -139 75 -185 96 -14 6 -32 15 -40 20 -27 17 -109 51 -123 51 -7
0 -21 6 -32 14 -11 7 -37 19 -57 25 -21 7 -38 17 -38 22 0 5 -3 8 -7 7 -17 -3
-63 15 -63 25 0 6 -3 7 -6 4 -4 -4 -19 0 -33 7 -14 8 -48 24 -76 36 -27 12
-59 26 -70 33 -11 6 -51 26 -90 45 -38 19 -71 39 -73 43 -2 5 -9 9 -15 9 -11
0 -130 76 -182 116 -75 57 -117 95 -161 145 -12 13 -35 35 -53 49 -17 14 -31
30 -31 37 0 7 -4 13 -9 13 -6 0 -53 43 -105 95 -53 52 -100 95 -106 95 -6 0
-16 11 -22 25 -6 14 -14 25 -18 25 -3 0 -84 77 -180 171 -157 154 -259 236
-334 271 -14 6 -26 15 -26 20 0 4 -9 8 -20 8 -11 0 -20 4 -20 8 0 4 -17 14
-37 21 -21 8 -65 26 -98 41 -33 15 -89 37 -125 50 -36 12 -79 28 -97 36 -17 8
-38 14 -46 14 -9 0 -28 5 -44 12 -15 6 -38 13 -51 15 -12 2 -42 14 -67 28 -25
13 -60 27 -77 31 -50 12 -327 11 -352 -1z m224 -35 c30 -9 89 -28 130 -41 41
-13 78 -23 83 -21 4 1 24 -7 44 -18 21 -11 41 -20 45 -20 4 0 33 -12 65 -27
32 -15 64 -28 72 -29 7 -1 23 -12 35 -23 12 -12 30 -21 39 -21 10 0 25 -4 35
-10 9 -5 28 -14 42 -20 25 -10 40 -19 92 -52 14 -10 33 -18 41 -18 9 0 17 -3
19 -7 2 -5 23 -24 48 -42 62 -48 68 -54 262 -243 93 -93 171 -168 173 -168 1
0 85 -82 187 -182 101 -101 202 -196 223 -213 21 -16 55 -45 76 -62 20 -18 41
-33 46 -33 5 0 34 -17 64 -37 51 -36 353 -192 381 -197 16 -3 80 -31 130 -57
20 -10 44 -19 52 -19 9 0 16 -4 16 -8 0 -4 17 -14 38 -21 139 -48 488 -232
532 -281 3 -3 23 -18 45 -35 75 -55 255 -248 255 -273 0 -6 3 -12 8 -14 10 -4
62 -86 62 -97 0 -6 6 -14 13 -18 8 -4 27 -34 43 -66 15 -32 45 -79 64 -105 53
-70 120 -210 120 -252 0 -8 7 -35 16 -60 20 -55 41 -141 59 -240 7 -41 19 -95
25 -120 6 -24 15 -74 20 -110 5 -36 15 -94 23 -130 8 -36 20 -119 26 -185 7
-66 16 -161 22 -212 12 -117 12 -323 0 -432 -6 -47 -15 -151 -21 -231 -12
-156 -43 -344 -95 -585 -20 -92 -53 -212 -65 -234 -5 -11 -10 -31 -10 -44 0
-14 -9 -44 -20 -68 -11 -24 -20 -53 -20 -64 0 -11 -9 -38 -20 -60 -11 -22 -19
-44 -20 -50 0 -9 -47 -136 -71 -190 -4 -11 -20 -49 -35 -85 -48 -119 -160
-350 -224 -465 -21 -38 -45 -81 -51 -95 -7 -14 -18 -32 -25 -40 -6 -8 -26 -42
-44 -74 -18 -33 -37 -64 -41 -70 -17 -20 -59 -87 -59 -93 0 -4 -7 -15 -17 -25
-9 -10 -21 -27 -27 -37 -48 -84 -327 -455 -443 -586 -153 -176 -447 -464 -527
-518 -18 -12 -105 -76 -192 -142 -141 -107 -217 -161 -301 -217 -14 -9 -29
-20 -32 -25 -7 -9 -31 -25 -83 -53 -21 -11 -38 -25 -38 -30 0 -6 -5 -10 -11
-10 -6 0 -44 -22 -84 -49 -40 -27 -86 -57 -102 -66 -15 -8 -41 -24 -58 -35
-16 -11 -48 -29 -70 -41 -22 -12 -47 -27 -55 -34 -18 -15 -91 -56 -178 -101
-35 -17 -71 -39 -80 -47 -9 -9 -29 -18 -44 -22 -15 -4 -32 -13 -39 -21 -6 -8
-19 -14 -28 -14 -9 0 -27 -9 -41 -20 -14 -11 -32 -20 -41 -20 -9 0 -22 -7 -29
-15 -7 -8 -17 -15 -22 -15 -6 0 -43 -16 -84 -35 -130 -62 -388 -172 -419 -180
-5 -1 -32 -12 -58 -23 -27 -12 -55 -22 -62 -22 -7 0 -26 -7 -41 -15 -16 -8
-36 -15 -44 -15 -9 0 -20 -4 -25 -9 -6 -5 -50 -21 -100 -35 -49 -15 -117 -37
-150 -48 -33 -11 -80 -24 -105 -29 -45 -9 -51 -11 -80 -22 -13 -5 -91 -20 -97
-18 -2 0 -21 -6 -43 -14 -22 -8 -40 -11 -40 -8 0 4 -5 2 -12 -5 -7 -7 -26 -12
-44 -12 -17 0 -54 -6 -80 -14 -27 -8 -94 -22 -149 -31 -55 -9 -120 -20 -145
-25 -25 -6 -76 -12 -114 -15 -38 -3 -71 -7 -75 -9 -9 -6 -153 -20 -317 -31
-22 -1 -58 -6 -80 -9 -57 -10 -320 -10 -384 -1 -30 4 -66 9 -80 10 -52 5 -204
39 -192 43 18 6 15 30 -5 40 -30 14 -68 9 -67 -9 1 -11 -5 -15 -17 -12 -11 3
-19 11 -19 17 0 6 -13 17 -29 23 -24 9 -31 8 -36 -4 -5 -14 -7 -14 -23 0 -9 8
-30 19 -47 23 -16 4 -36 11 -43 17 -7 5 -15 7 -19 4 -3 -4 -11 -3 -17 2 -6 4
-33 14 -61 21 -27 8 -61 20 -75 27 -14 7 -32 13 -40 13 -8 1 -44 16 -80 35
-36 18 -81 41 -100 51 -19 10 -37 20 -40 23 -3 4 -27 17 -55 29 -27 13 -57 28
-65 33 -8 5 -28 16 -44 25 -16 9 -38 25 -49 35 -12 10 -26 19 -33 19 -7 0 -15
4 -18 8 -8 13 27 11 44 -3 20 -16 98 -57 185 -96 39 -17 79 -36 90 -42 19 -9
19 -9 3 9 -17 19 -18 23 -18 48 0 9 -7 12 -20 9 -21 -6 -29 12 -8 19 8 3 7 11
-5 28 -15 21 -17 22 -17 6 0 -21 -13 -14 -16 9 -1 8 4 15 12 15 18 0 18 -4
-11 106 -31 116 -31 117 0 150 14 15 25 33 25 41 0 17 66 84 74 76 3 -4 6 5 6
19 0 14 -6 26 -12 25 -21 -1 -78 15 -79 22 0 3 -2 16 -5 28 -3 17 13 38 66 90
38 37 70 73 70 80 0 7 6 10 13 8 6 -3 17 5 22 17 8 18 4 35 -18 81 -16 31 -26
63 -24 70 3 7 6 5 6 -5 1 -10 6 -18 11 -18 15 0 12 58 -2 62 -9 3 -6 15 11 40
27 39 151 111 218 126 49 11 78 -1 64 -26 -13 -23 -68 -55 -73 -42 -6 18 -42
19 -62 1 -22 -19 -84 -114 -97 -149 -10 -27 -4 -62 12 -62 5 0 17 8 28 19 21
21 81 43 123 46 21 1 30 -5 38 -26 15 -35 52 -44 106 -27 31 11 39 18 40 38 1
56 14 64 108 63 53 0 92 -5 101 -13 29 -24 45 -4 45 55 0 49 4 59 28 80 33 30
112 48 169 39 31 -5 50 -2 68 10 13 9 30 16 38 16 7 0 13 10 14 22 3 30 21 39
71 33 33 -4 50 0 82 20 22 14 47 25 56 25 9 0 30 6 47 14 79 34 122 46 170 47
29 0 67 0 85 1 18 0 38 -4 44 -10 8 -8 5 -9 -9 -6 -29 8 -37 -11 -18 -40 16
-24 55 -26 55 -2 0 6 4 5 9 -3 13 -21 72 -6 96 25 11 14 28 33 37 42 20 18 24
47 8 57 -15 9 19 54 45 61 15 4 37 -3 63 -20 71 -45 117 -42 166 10 22 25 24
30 11 44 -12 14 -12 17 6 29 18 10 24 10 39 -4 16 -15 21 -15 46 -2 21 11 36
12 66 4 45 -11 100 5 81 24 -16 16 11 60 49 81 59 31 102 19 121 -34 4 -12 17
-16 52 -16 49 1 68 15 41 30 -27 15 -20 61 11 76 15 6 34 12 43 12 9 0 25 9
35 20 10 11 26 20 37 20 10 0 18 4 18 9 0 5 15 16 33 25 38 19 68 44 83 71 17
30 39 29 72 -5 22 -21 40 -30 64 -30 18 0 43 -3 55 -6 29 -8 70 31 53 52 -19
22 -6 39 54 75 51 32 68 53 48 61 -5 1 -12 16 -16 32 l-7 29 42 -6 c27 -4 50
-15 66 -31 13 -14 34 -28 46 -31 28 -8 76 10 83 30 4 8 12 15 20 15 10 0 14
13 14 44 0 43 0 44 -40 50 -39 6 -80 38 -80 63 0 7 7 13 15 13 9 0 12 6 8 16
-10 26 22 44 60 33 17 -5 38 -16 46 -24 14 -13 13 -15 -2 -15 -23 0 -22 -31 3
-80 20 -39 51 -53 65 -29 4 6 14 8 22 5 8 -3 28 1 45 10 16 8 36 13 43 10 17
-6 28 21 12 28 -17 7 48 66 73 66 21 0 28 16 9 22 -6 2 10 21 35 42 33 27 45
43 41 55 -3 10 3 25 13 35 17 14 21 15 31 2 9 -11 10 -20 2 -35 -14 -26 -14
-61 0 -61 6 0 30 15 52 33 23 17 50 32 61 32 24 0 54 50 55 91 1 17 8 37 17
44 31 26 35 47 17 83 -18 33 -18 33 -35 13 l-17 -21 -1 22 c0 13 14 33 36 51
41 34 147 92 168 92 16 0 41 54 31 70 -3 5 -11 7 -17 4 -15 -10 8 30 26 45 9
8 29 11 46 9 32 -5 40 5 34 43 -3 13 0 31 6 39 9 13 11 13 20 0 7 -11 9 -3 8
31 -2 58 4 67 50 75 37 7 61 27 62 53 0 7 11 26 25 43 l25 30 0 -26 c0 -31 15
-34 30 -7 14 28 12 44 -5 37 -28 -10 -15 13 37 68 42 45 55 53 70 45 10 -5 18
-6 18 -2 0 4 3 19 7 32 4 17 3 22 -5 17 -7 -4 -12 -2 -12 4 0 29 27 52 105 91
47 23 88 45 91 50 3 5 14 9 24 9 10 0 21 6 23 13 3 6 6 -1 6 -16 1 -38 26 -30
28 9 5 112 37 149 153 179 26 7 45 17 45 26 1 8 5 27 9 42 7 22 4 31 -10 42
-18 13 -17 15 14 47 l33 33 -10 -27 c-13 -33 -8 -35 20 -7 20 20 20 49 -1 49
-21 0 -9 30 15 35 14 3 36 7 50 10 21 5 25 11 26 43 0 20 3 31 6 25 2 -7 9
-13 14 -13 15 0 10 83 -6 104 -18 24 -19 37 -2 33 8 -1 12 14 12 50 -1 76 -15
84 -61 34 -47 -50 -64 -52 -64 -8 1 32 29 77 49 77 18 0 33 50 20 66 -8 10 -8
14 0 14 6 0 11 15 11 33 0 18 7 59 15 90 19 74 19 74 -8 51 -13 -11 -10 -5 8
16 70 82 108 91 164 38 28 -26 44 -33 82 -34 27 -2 53 -5 58 -8 20 -13 43 6
37 30 -5 19 -2 24 14 24 20 0 28 24 11 35 -6 3 -6 16 -1 33 4 15 11 49 14 75
4 37 2 49 -9 53 -8 4 -15 14 -15 24 0 26 -27 45 -44 31 -7 -6 -21 -9 -30 -5
-16 6 -19 18 -17 64 2 31 -22 66 -38 56 -6 -4 -9 -11 -6 -16 10 -16 -34 2 -51
21 -16 17 -16 19 -1 19 18 0 23 20 9 35 -5 6 -14 37 -21 70 -7 33 -17 69 -21
81 -5 12 -5 41 0 65 32 177 39 270 17 266 -5 -1 -12 4 -14 11 -3 8 1 10 11 6
14 -5 15 -3 7 17 -12 30 -26 117 -23 143 1 11 8 32 16 46 15 31 7 62 -18 66
-33 5 -66 34 -66 58 0 13 -2 39 -5 57 l-5 34 11 -34 c9 -31 11 -32 23 -15 8
10 11 25 8 33 -8 22 -35 51 -46 51 -5 0 -18 8 -29 17 -17 16 -20 16 -30 2 -7
-8 -21 -18 -32 -21 -11 -3 -28 -9 -37 -13 -13 -5 -18 -2 -18 9 0 35 -28 2 -33
-39 -8 -52 -2 -72 21 -77 24 -5 -39 -38 -73 -38 -18 0 -25 5 -25 20 0 10 6 23
14 27 8 4 19 34 26 67 10 48 10 60 -2 67 -10 7 -7 11 10 15 13 4 19 10 13 13
-6 4 -7 12 0 21 8 13 11 12 23 -3 11 -14 16 -15 22 -6 4 8 -1 18 -14 27 -22
14 -33 80 -12 67 6 -3 10 3 10 14 0 14 -5 19 -15 15 -28 -11 -5 26 26 42 27
13 33 29 32 72 -1 6 3 12 8 12 5 0 9 -5 9 -12 0 -6 2 -9 5 -6 3 3 2 19 -1 37
-6 27 -10 30 -28 25 -18 -6 -19 -5 -7 10 7 9 19 16 26 16 7 0 16 12 20 27 4
19 9 23 14 14 6 -10 10 -9 15 4 9 26 7 42 -4 25 -8 -13 -10 -12 -10 3 0 9 5
17 11 17 13 0 4 77 -11 95 -6 7 -7 15 -3 19 4 4 7 24 5 44 -1 20 1 31 4 25 8
-18 24 -16 24 2 0 27 -31 77 -44 72 -7 -3 -23 4 -37 14 -20 15 -21 19 -6 19 9
0 17 5 17 11 0 6 8 27 17 46 16 34 16 36 -2 49 -10 8 -25 14 -32 14 -7 0 -13
5 -13 10 0 6 -5 10 -11 10 -18 0 -35 24 -37 53 -1 18 3 27 14 27 24 0 73 -29
84 -50 6 -11 22 -27 35 -36 23 -15 25 -14 52 13 23 23 36 28 72 27 37 -1 50 4
82 33 21 19 43 32 49 28 13 -8 13 -38 -1 -52 -24 -24 15 -42 55 -27 19 7 21
31 4 36 -7 3 -9 12 -5 22 6 16 17 17 110 12 56 -3 110 -6 119 -7 18 0 37 -19
20 -19 -5 0 -13 -20 -16 -45 -4 -25 -12 -45 -18 -45 -6 0 -20 -7 -30 -17 -38
-34 -9 -101 33 -75 15 10 19 9 19 -2 0 -20 -45 -32 -137 -35 -16 -1 -18 -88
-3 -126 11 -29 49 -48 67 -33 8 7 20 2 38 -16 14 -14 28 -26 31 -26 3 0 12 -7
20 -15 9 -8 25 -15 37 -16 12 0 32 -2 45 -3 13 -2 34 7 48 21 14 13 38 23 54
23 24 0 30 6 40 36 10 29 10 38 -1 44 -19 12 7 40 37 40 12 0 26 5 30 11 4 8
9 7 14 -2 11 -17 40 6 40 32 0 19 -9 23 -42 20 -9 -1 -33 5 -53 13 -31 13 -36
20 -31 38 3 13 6 30 6 38 0 13 1 13 10 0 8 -12 10 -10 10 11 0 14 5 30 11 36
8 8 -10 10 -70 7 -77 -3 -82 -2 -97 21 -9 13 -14 30 -11 37 4 8 6 6 6 -4 2
-37 20 -16 26 30 3 26 7 57 9 70 3 23 -19 32 -27 10 -2 -7 -8 -10 -12 -6 -9 9
11 35 38 49 10 6 42 13 70 17 90 10 101 9 105 -13 4 -20 4 -20 -11 0 -15 19
-16 19 -36 1 -25 -23 -27 -68 -5 -90 18 -18 34 -21 34 -5 0 6 9 8 20 4 16 -5
23 1 37 29 19 41 39 45 77 15 14 -11 26 -18 26 -15 0 3 10 -5 23 -17 12 -12
36 -33 52 -47 42 -34 55 -57 20 -34 l-27 17 17 -39 c9 -21 21 -52 26 -69 5
-16 13 -39 18 -50 5 -11 17 -36 25 -55 9 -19 25 -41 36 -48 18 -11 20 -10 20
9 0 21 1 21 18 6 10 -10 25 -17 32 -17 10 0 9 -5 -3 -18 -20 -22 -22 -73 -5
-90 9 -9 0 -12 -40 -12 -51 0 -52 1 -52 29 0 42 10 66 21 49 7 -10 9 -9 9 5 0
23 -29 34 -41 16 -7 -11 -11 -10 -23 6 -9 13 -11 22 -4 26 5 4 -3 11 -19 17
-15 7 -40 21 -55 33 -22 18 -30 20 -42 9 -13 -10 -17 -9 -22 4 -6 16 -8 15
-26 -1 -18 -16 -19 -26 -14 -82 6 -60 30 -128 63 -177 12 -19 18 -21 46 -12
18 6 43 16 57 23 28 14 71 10 82 -7 5 -9 13 -7 30 7 53 46 67 49 114 23 24
-12 44 -27 44 -32 0 -6 -5 -5 -12 2 -32 32 -38 -9 -9 -66 38 -73 61 -130 61
-148 0 -29 13 -44 29 -34 12 7 12 17 -1 67 -8 32 -18 66 -23 76 -5 12 -3 17 9
17 10 0 16 -9 16 -23 0 -12 6 -31 14 -42 18 -27 28 -95 13 -92 -6 1 -21 -33
-33 -78 l-22 -80 1 67 c2 73 -6 91 -28 62 -20 -26 -20 -100 0 -108 8 -3 15
-10 15 -15 0 -7 -8 -7 -24 -1 -15 5 -27 5 -35 -3 -8 -8 -11 -7 -11 6 0 21 -23
22 -40 2 -20 -24 1 -158 32 -212 18 -30 23 -32 61 -29 23 2 52 4 65 5 13 1 20
6 17 11 -3 6 -1 10 4 10 6 0 11 7 11 16 0 8 -4 13 -8 10 -5 -3 -9 7 -10 22 0
15 -2 34 -4 42 -5 21 31 24 53 4 10 -9 19 -25 19 -35 0 -10 4 -20 9 -23 5 -3
7 -15 4 -26 -3 -11 -2 -28 2 -37 7 -17 8 -16 15 2 8 19 9 19 9 -2 1 -15 -5
-23 -15 -23 -11 0 -14 -6 -10 -22 3 -13 3 -18 0 -11 -4 9 -10 9 -23 1 -14 -8
-25 -7 -49 4 -17 9 -33 13 -36 10 -7 -6 -8 -52 -2 -52 2 0 11 -3 20 -6 10 -4
16 -1 16 8 0 20 84 15 105 -6 9 -9 14 -20 10 -25 -3 -6 2 -14 11 -19 22 -12
15 -57 -9 -56 -10 1 -17 -5 -17 -16 0 -13 -6 -17 -19 -13 -11 3 -34 -2 -52
-11 -39 -20 -39 -20 -39 -1 0 12 -4 13 -25 3 -27 -12 -42 -60 -31 -101 4 -19
-1 -27 -27 -40 -17 -10 -47 -27 -65 -39 -19 -11 -50 -21 -70 -22 -34 -1 -37
-4 -40 -33 -3 -34 27 -103 61 -141 16 -17 18 -25 9 -34 -9 -9 -12 -7 -12 9 0
12 -8 23 -19 26 -25 6 -46 -32 -38 -72 4 -20 1 -33 -9 -42 -12 -10 -13 -9 -8
5 5 14 2 17 -17 14 -47 -6 -32 -92 15 -87 37 5 65 -12 82 -47 23 -48 13 -52
-19 -7 l-27 38 0 -28 c0 -50 16 -66 61 -64 29 1 43 -3 50 -16 6 -9 15 -17 22
-18 7 0 22 -13 34 -29 21 -25 21 -28 4 -23 -23 6 -35 -21 -20 -49 6 -12 16
-17 26 -14 14 6 14 4 2 -10 -10 -13 -24 -14 -67 -9 -36 4 -58 3 -68 -5 -11
-10 -14 -9 -14 4 0 22 -19 20 -47 -6 -20 -19 -23 -31 -23 -102 0 -96 11 -122
38 -89 12 16 23 21 40 17 24 -7 26 -12 12 -34 -8 -13 -10 -12 -10 3 0 22 -13
22 -34 -2 -10 -11 -21 -46 -26 -84 -4 -35 -13 -73 -19 -85 -13 -25 -14 -33 -1
-52 8 -13 11 -12 24 5 15 20 15 20 10 0 -8 -31 -51 -57 -97 -59 -38 -1 -42 -4
-45 -29 -4 -32 21 -67 48 -67 14 0 17 -8 15 -37 -1 -21 -6 -50 -10 -65 -11
-42 3 -53 32 -26 25 22 25 22 14 1 -6 -12 -32 -36 -58 -55 -47 -32 -50 -33
-156 -33 -85 0 -110 -3 -118 -15 -6 -9 -8 -45 -4 -88 6 -69 5 -73 -17 -81 -13
-5 -30 -17 -38 -27 -14 -16 -15 -15 -20 10 l-5 28 -27 -22 c-49 -38 -30 -128
21 -100 46 24 184 -16 188 -55 3 -17 2 -17 -7 3 -5 12 -16 22 -24 22 -15 0
-30 -41 -17 -50 20 -13 18 -38 -3 -48 -19 -8 -27 -6 -44 11 -22 21 -105 34
-129 19 -16 -10 -25 -54 -14 -71 11 -17 46 -6 35 11 -5 8 -2 9 12 3 10 -5 31
-9 47 -10 15 -2 34 -3 43 -4 12 -1 14 -5 7 -14 -6 -6 -13 -29 -17 -49 -6 -30
-3 -39 15 -52 l22 -15 -27 -11 c-15 -5 -30 -10 -34 -10 -4 0 -18 -9 -32 -20
-19 -15 -22 -22 -13 -31 9 -9 9 -17 2 -32 -8 -14 -8 -27 0 -44 6 -13 11 -39
11 -58 0 -22 5 -35 15 -37 12 -2 5 -15 -25 -52 -37 -45 -57 -55 -25 -12 19 25
19 46 1 46 -17 0 -99 -90 -122 -133 -26 -51 -35 -86 -49 -197 -11 -91 -16
-107 -38 -125 -33 -26 -67 -106 -67 -156 0 -24 -11 -60 -28 -93 -34 -63 -43
-94 -31 -102 13 -8 11 -41 -2 -50 -9 -5 -10 1 -5 20 6 25 5 27 -16 20 -29 -9
-43 -27 -67 -89 -17 -44 -37 -151 -34 -180 9 -84 28 -111 40 -54 4 20 9 27 16
20 6 -6 17 0 32 17 13 15 26 24 30 21 3 -4 -6 -20 -20 -37 -14 -16 -25 -39
-25 -49 0 -11 -11 -29 -25 -41 -27 -23 -40 -29 -30 -12 3 6 1 10 -4 10 -6 0
-11 -4 -11 -10 0 -5 -3 -10 -7 -10 -5 0 -8 12 -8 28 -1 15 -4 43 -9 62 -5 26
-4 31 4 20 17 -25 0 68 -23 122 -13 30 -25 44 -33 41 -10 -3 -14 3 -14 20 0
14 -4 29 -10 32 -13 8 -13 -21 1 -47 17 -32 3 -32 -18 1 l-19 30 -46 -23 c-68
-34 -101 -39 -126 -16 -26 24 -33 9 -19 -40 10 -38 22 -50 50 -50 14 0 17 5
12 23 -5 17 -4 19 4 7 6 -8 11 -18 11 -22 0 -12 -57 -38 -84 -38 -16 0 -30 -8
-37 -22 -10 -19 -13 -20 -23 -6 -8 11 -18 13 -34 7 -20 -7 -22 -14 -17 -42 6
-30 2 -37 -45 -80 -57 -52 -96 -76 -137 -81 -16 -2 -36 -7 -47 -11 -11 -5 -21
-3 -26 5 -6 10 -13 8 -33 -6 -25 -19 -54 -84 -44 -100 3 -5 26 -9 51 -8 28 0
51 -5 58 -13 8 -10 8 -12 -3 -8 -9 3 -20 -9 -31 -38 -20 -48 -22 -65 -8 -87 7
-12 12 -11 31 5 l23 20 -20 -27 c-30 -42 -102 -44 -118 -3 -4 13 -2 16 9 12
21 -9 26 5 19 57 -5 32 -11 45 -19 42 -8 -3 -11 2 -8 12 2 10 -6 28 -19 41
-16 18 -18 23 -6 18 15 -5 17 1 16 51 -1 31 -6 60 -11 64 -6 3 -26 4 -44 1
-26 -4 -33 -2 -31 8 2 8 -5 14 -17 14 -18 0 -20 -5 -16 -65 2 -36 8 -68 13
-71 8 -5 -53 -49 -69 -49 -4 0 -17 -10 -31 -22 -16 -16 -23 -18 -20 -8 4 21
-32 19 -46 -2 -8 -13 -8 -23 0 -35 14 -23 34 -28 34 -9 0 9 4 16 9 16 6 0 71
-47 89 -65 2 -2 -4 -2 -14 -1 -12 1 -21 -15 -35 -64 -23 -80 -24 -104 -2 -126
16 -15 16 -17 -2 -30 -10 -7 -21 -11 -25 -9 -4 2 -29 -18 -55 -45 -27 -28 -56
-50 -65 -50 -8 0 -33 -11 -56 -23 -35 -21 -43 -22 -61 -10 -19 13 -23 11 -43
-14 -16 -20 -20 -36 -16 -57 10 -50 46 -77 46 -35 0 16 3 19 13 11 6 -5 32
-16 57 -23 25 -7 54 -18 65 -24 11 -7 39 -13 63 -14 41 -2 84 18 157 74 10 8
22 15 25 15 4 0 12 16 20 35 8 19 16 35 19 35 4 0 18 10 31 23 14 13 48 32 75
42 84 30 105 40 105 47 0 5 6 8 13 8 15 1 52 33 91 80 15 19 38 39 50 45 13 7
21 20 21 36 0 36 19 56 61 64 20 3 51 21 72 42 34 33 88 63 112 63 5 0 10 -7
10 -16 0 -13 6 -10 27 10 22 22 25 31 16 44 -8 13 -4 26 21 60 36 51 39 54 59
46 9 -3 13 -12 10 -22 -3 -9 12 0 33 21 30 29 36 40 26 46 -8 5 -12 17 -9 27
4 17 6 17 12 -3 4 -13 9 -23 11 -23 10 0 87 94 170 208 51 70 104 139 117 154
14 16 21 28 16 28 -6 0 -7 5 -4 10 4 6 10 8 15 5 7 -4 34 49 35 70 0 6 7 9 16
7 10 -1 20 11 29 38 7 21 16 37 20 35 11 -7 50 25 61 49 17 36 36 66 58 92 11
13 21 27 21 31 0 3 7 15 17 25 9 10 13 21 9 25 -4 4 -11 1 -16 -7 -9 -13 -10
-13 -9 0 1 8 5 26 9 40 8 25 8 25 9 2 1 -14 6 -22 14 -20 17 6 141 190 183
273 19 39 39 77 44 85 9 14 38 75 128 270 47 104 89 214 164 435 17 50 37 104
44 121 7 17 31 82 52 145 22 63 44 128 50 144 13 37 37 131 52 210 7 33 16 73
21 89 5 16 17 111 27 210 32 341 17 1077 -27 1278 -10 44 -21 103 -41 218 -7
36 -16 85 -20 110 -5 25 -15 65 -24 90 -8 25 -25 79 -37 120 -12 41 -39 112
-60 158 -22 46 -39 85 -39 88 0 5 -12 20 -37 49 -7 7 -13 18 -13 24 0 6 -21
33 -47 59 -46 45 -103 123 -103 139 0 5 -9 14 -20 21 -11 7 -20 17 -20 23 0
31 -200 259 -228 259 -7 0 -12 7 -12 15 0 8 -7 15 -15 15 -9 0 -18 7 -21 15
-4 8 -12 15 -20 15 -8 0 -14 3 -14 8 0 4 -39 28 -87 52 -49 25 -89 48 -91 52
-2 4 -10 4 -18 1 -8 -3 -14 -1 -14 5 0 6 -13 13 -30 17 -16 3 -47 15 -69 26
-22 10 -44 19 -49 19 -6 0 -29 9 -53 20 -48 21 -74 26 -64 10 3 -5 21 -12 40
-16 19 -3 35 -9 35 -13 0 -3 31 -19 70 -35 81 -35 88 -46 9 -16 -61 23 -218
99 -206 100 5 0 5 5 1 11 -4 7 -10 7 -16 1 -7 -7 -27 -1 -59 19 -27 16 -49 27
-49 24 0 -4 -71 19 -105 34 -18 8 -50 15 -122 25 -30 4 -20 -9 26 -35 25 -13
37 -27 34 -35 -3 -8 -2 -26 1 -40 6 -21 9 -24 22 -13 8 6 16 10 19 7 4 -4 -91
-82 -123 -102 -9 -5 -17 -4 -22 5 -12 18 -54 -12 -83 -59 -89 -146 -174 -438
-122 -418 8 3 15 1 15 -3 0 -9 -24 -21 -40 -21 -7 0 -40 60 -40 74 0 3 7 3 15
0 9 -4 15 0 15 9 0 19 -17 30 -47 32 -27 1 -56 35 -42 50 15 15 10 23 -11 18
-13 -4 -20 0 -20 10 0 8 -7 20 -15 27 -9 7 -13 21 -10 31 4 13 1 19 -8 19 -8
0 -17 7 -21 15 -3 8 -17 20 -31 27 -14 6 -25 16 -25 22 0 17 -63 76 -82 76
-21 0 -22 -4 -8 -31 8 -15 7 -21 -3 -25 -9 -3 -13 -14 -10 -27 3 -12 -5 -4
-17 18 -13 22 -36 59 -51 82 -16 23 -29 45 -29 49 0 4 -7 14 -15 23 -32 35
-71 82 -90 106 -31 41 -164 175 -174 175 -4 0 -52 60 -106 133 -54 72 -104
137 -112 143 -7 6 -13 16 -13 23 0 6 -5 11 -11 11 -12 0 -108 100 -109 113 0
4 -4 7 -9 7 -5 0 -29 19 -53 43 -55 52 -111 97 -152 119 -95 52 -223 104 -271
112 -11 1 -29 6 -40 9 -23 7 -67 16 -110 22 -16 2 -46 7 -65 10 -19 2 -66 7
-105 11 -38 3 -73 8 -76 9 -3 2 -26 5 -52 6 -26 2 -47 5 -47 9 0 13 25 30 45
30 30 0 82 21 157 62 88 49 146 54 188 18 13 -11 26 -20 29 -21 3 0 14 -2 24
-4 11 -2 40 0 66 4 50 8 71 5 71 -10 0 -4 -6 -6 -14 -3 -21 8 -30 -14 -12 -31
8 -8 18 -15 23 -15 5 0 14 -12 20 -27 14 -31 32 -60 51 -81 6 -7 12 -18 12
-23 0 -5 7 -9 15 -9 9 0 18 -7 21 -15 5 -12 29 -25 54 -30 3 0 19 -9 37 -18
18 -9 37 -17 43 -17 6 0 24 -10 39 -21 35 -26 61 -17 35 12 -9 10 -23 19 -30
19 -8 0 -28 9 -46 19 -17 11 -36 17 -40 14 -9 -5 -28 15 -49 50 -12 21 4 23
25 2 8 -8 18 -15 22 -15 4 0 15 -6 23 -14 9 -8 53 -33 98 -56 45 -23 101 -61
125 -83 40 -39 47 -42 101 -43 44 -1 61 -5 72 -20 13 -17 14 -18 15 -1 0 9 9
25 19 34 20 16 19 18 -16 58 -19 20 -16 27 6 14 21 -14 49 -6 57 16 4 8 -1 30
-10 49 -9 19 -16 37 -16 40 0 15 52 4 70 -14 11 -11 24 -20 28 -20 4 0 25 -16
45 -35 63 -59 98 -75 198 -89 34 -5 127 -67 175 -117 56 -59 143 -136 180
-159 13 -8 24 -18 24 -22 0 -5 5 -8 11 -8 10 0 42 -22 89 -62 9 -7 41 -32 73
-56 31 -23 57 -46 57 -50 0 -10 38 -33 64 -37 23 -5 25 -8 -82 86 -23 20 -43
35 -45 33 -1 -2 -16 8 -32 23 -17 14 -47 37 -67 51 -21 13 -38 28 -38 33 0 4
-8 10 -18 13 -10 3 -40 27 -67 53 -28 27 -55 50 -60 51 -6 2 -30 21 -55 42
-25 21 -63 53 -85 70 -22 17 -44 38 -48 46 -4 8 -12 14 -17 14 -5 0 -26 19
-47 41 -62 68 -77 82 -123 119 -66 54 -92 57 -37 6 26 -26 51 -46 55 -46 4 0
16 -13 25 -30 10 -16 23 -30 28 -30 6 0 7 -5 3 -11 -10 -17 -416 400 -409 421
7 21 -60 84 -81 76 -8 -3 -14 0 -14 7 0 7 -10 21 -22 31 -13 10 -32 26 -42 35
-18 15 -19 15 -13 -2 6 -16 5 -16 -17 -1 -14 8 -27 21 -30 29 -6 16 -85 59
-93 52 -3 -3 5 -11 17 -17 43 -23 10 -21 -42 3 -29 14 -72 33 -95 43 -23 9
-40 21 -38 25 3 4 -3 13 -12 20 -15 12 -16 12 -10 -4 5 -14 3 -18 -11 -15 -10
2 -16 11 -14 23 2 13 0 16 -5 8 -7 -10 -20 -9 -57 2 -27 8 -54 19 -60 24 -19
15 -149 53 -213 62 -68 10 -113 -1 -113 -26 0 -8 -3 -15 -8 -15 -4 0 -18 -20
-31 -45 -13 -25 -26 -43 -28 -41 -2 2 9 28 26 58 17 30 31 66 31 81 0 26 0 26
83 25 48 0 105 -7 137 -18z m367 -365 c30 -20 31 -22 16 -38 -16 -16 -15 -21
12 -75 17 -31 38 -69 48 -84 10 -16 16 -32 13 -37 -10 -16 -47 1 -58 25 -7 15
-28 29 -59 39 -50 17 -72 36 -51 43 13 4 17 42 4 42 -4 0 -13 -5 -19 -11 -13
-13 -83 44 -83 67 0 20 95 63 123 56 12 -3 36 -15 54 -27z m-700 -67 c-3 -8
-6 -5 -6 6 -1 11 2 17 5 13 3 -3 4 -12 1 -19z m773 2 c0 -5 -2 -10 -4 -10 -3
0 -8 5 -11 10 -3 6 -1 10 4 10 6 0 11 -4 11 -10z m750 -436 c0 -8 -4 -12 -10
-9 -5 3 -10 10 -10 16 0 5 5 9 10 9 6 0 10 -7 10 -16z m-370 -44 c0 -5 -5 -10
-11 -10 -5 0 -7 5 -4 10 3 6 8 10 11 10 2 0 4 -4 4 -10z m1895 -883 c17 -15
33 -27 37 -27 5 0 8 -4 8 -10 0 -5 -21 6 -47 26 -60 45 -58 43 -41 40 8 -1 27
-14 43 -29z m-934 -104 c-8 -15 -10 -15 -11 -2 0 17 10 32 18 25 2 -3 -1 -13
-7 -23z m-21 -68 c-7 -20 -14 -35 -16 -33 -2 2 2 21 8 41 6 20 13 35 16 33 2
-3 -1 -21 -8 -41z m1141 28 c13 -15 12 -15 -8 -4 -24 12 -29 21 -14 21 5 0 15
-7 22 -17z m-1161 -83 c0 -5 -5 -10 -11 -10 -5 0 -7 5 -4 10 3 6 8 10 11 10 2
0 4 -4 4 -10z m-34 -91 c-8 -19 -15 -29 -15 -22 -1 18 19 67 25 61 3 -3 -2
-21 -10 -39z m823 -163 l-32 -31 26 33 c15 19 27 39 28 45 0 7 3 7 6 -2 3 -7
-9 -27 -28 -45z m598 -30 c-2 -6 -12 6 -21 28 -22 52 -20 58 5 17 11 -18 18
-38 16 -45z m-1207 8 c0 -13 -21 -44 -30 -44 -14 0 -12 24 2 38 13 13 28 16
28 6z m1228 -49 c-3 -3 -9 2 -12 12 -6 14 -5 15 5 6 7 -7 10 -15 7 -18z m-494
-91 c9 -3 16 -11 16 -16 0 -6 -6 -5 -15 2 -19 16 -30 -8 -21 -51 7 -36 -12
-48 -50 -31 -62 29 5 121 70 96z m-1137 -81 c-3 -10 -5 -2 -5 17 0 19 2 27 5
18 2 -10 2 -26 0 -35z m1753 11 c0 -27 -18 -23 -22 6 -4 24 -2 27 9 19 7 -7
13 -17 13 -25z m-300 -10 c0 -8 -4 -12 -10 -9 -5 3 -10 13 -10 21 0 8 5 12 10
9 6 -3 10 -13 10 -21z m-1443 -76 c-2 -13 -4 -5 -4 17 -1 22 1 32 4 23 2 -10
2 -28 0 -40z m423 -19 c0 -11 -4 -17 -10 -14 -5 3 -10 13 -10 21 0 8 5 14 10
14 6 0 10 -9 10 -21z m1055 -9 c3 -5 1 -10 -4 -10 -6 0 -11 5 -11 10 0 6 2 10
4 10 3 0 8 -4 11 -10z m-1452 -210 c5 -112 -4 -58 -16 95 -5 57 -4 70 2 45 5
-19 12 -82 14 -140z m1812 150 c4 -11 11 -18 16 -15 5 4 9 2 9 -4 0 -23 -18
-18 -34 10 -9 16 -13 29 -7 29 5 0 13 -9 16 -20z m-33 -507 c6 -13 9 -26 6
-29 -9 -9 -38 57 -37 85 1 26 1 26 11 -4 5 -16 14 -40 20 -52z m-1432 -26 c0
-18 -2 -19 -10 -7 -13 20 -13 43 0 35 6 -3 10 -16 10 -28z m183 -249 c-3 -16
-9 -28 -14 -28 -12 0 -11 4 3 35 14 31 18 29 11 -7z m1494 -60 c-3 -8 -6 -5
-6 6 -1 11 2 17 5 13 3 -3 4 -12 1 -19z m-9 -228 c1 -23 -3 -40 -9 -40 -6 0
-17 -7 -26 -15 -21 -21 -33 -10 -33 31 0 27 4 34 19 34 10 0 24 7 31 15 17 20
17 21 18 -25z m-1458 -47 c-3 -31 -10 -58 -16 -60 -11 -4 -2 86 11 107 10 16
10 13 5 -47z m1160 -59 c0 -12 -4 -26 -10 -29 -6 -4 -10 6 -10 24 0 16 -4 33
-10 36 -5 3 -10 14 -10 23 1 27 40 -25 40 -54z m-1160 -172 c0 -15 -2 -15 -10
-2 -13 20 -13 33 0 25 6 -3 10 -14 10 -23z m1299 -443 c4 -12 2 -12 -12 -1
-14 12 -17 10 -23 -15 -4 -15 -17 -49 -30 -75 -13 -26 -24 -59 -24 -74 0 -23
2 -25 17 -13 14 12 16 12 11 -1 -7 -22 -78 -27 -78 -6 0 9 7 16 15 16 9 0 15
9 15 21 0 15 -5 19 -15 15 -9 -3 -15 0 -15 9 0 8 -4 15 -10 15 -26 0 -6 20 30
30 23 6 40 17 40 25 0 54 64 98 79 54z m-39 -139 c-16 -30 -22 -19 -7 13 6 14
13 22 15 17 2 -5 -2 -19 -8 -30z m-1416 -58 c-4 -18 -10 -29 -14 -27 -5 3 -3
18 3 35 14 37 19 33 11 -8z m1143 -214 c-3 -7 -5 -2 -5 12 0 14 2 19 5 13 2
-7 2 -19 0 -25z m-230 -328 c1 -28 -2 -50 -7 -50 -11 0 -14 83 -3 93 3 4 7 7
7 7 1 0 2 -23 3 -50z m444 -233 c-10 -9 -11 -8 -5 6 3 10 9 15 12 12 3 -3 0
-11 -7 -18z m-2731 -382 c0 -8 -4 -17 -10 -20 -5 -3 -10 1 -10 9 0 9 -5 16
-11 16 -5 0 -8 4 -4 10 8 13 35 1 35 -15z m2338 5 c-21 -13 -34 -68 -18 -83 8
-9 15 -7 26 7 8 11 14 15 14 9 0 -19 -39 -45 -72 -46 -29 -2 -33 1 -36 26 -3
23 4 36 35 63 21 19 45 34 53 34 12 -1 12 -2 -2 -10z m-150 -35 c-3 -3 -9 2
-12 12 -6 14 -5 15 5 6 7 -7 10 -15 7 -18z m382 -15 c0 -5 -5 -10 -11 -10 -5
0 -7 5 -4 10 3 6 8 10 11 10 2 0 4 -4 4 -10z m-360 -40 c0 -13 -1 -13 -10 0
-5 8 -10 22 -10 30 0 13 1 13 10 0 5 -8 10 -22 10 -30z m-2347 -57 c-167 -163
-385 -367 -435 -407 -29 -22 -63 -51 -75 -62 -20 -18 -110 -83 -188 -134 -13
-8 -44 -30 -69 -47 -26 -18 -50 -33 -53 -33 -4 0 -16 -8 -27 -19 -12 -10 -46
-32 -76 -48 -30 -16 -75 -43 -100 -58 -25 -16 -63 -38 -85 -49 -22 -11 -47
-25 -55 -32 -19 -16 -132 -74 -144 -74 -5 0 -17 -7 -26 -15 -15 -13 -291 -154
-375 -190 -22 -10 -62 -28 -90 -40 -52 -24 -134 -58 -195 -80 -56 -20 -259
-106 -340 -144 -41 -19 -80 -35 -85 -36 -6 -2 -41 -17 -77 -34 -37 -17 -72
-31 -78 -31 -5 0 -10 -4 -10 -10 0 -5 -8 -10 -18 -10 -10 0 -22 -3 -26 -7 -4
-5 -11 -8 -14 -9 -8 -1 -55 -21 -142 -61 -30 -14 -91 -41 -135 -60 -44 -20
-84 -39 -89 -44 -6 -5 -18 -9 -28 -9 -10 0 -29 -6 -41 -14 -12 -7 -51 -26 -87
-41 -62 -26 -110 -48 -210 -95 -41 -19 -96 -54 -127 -80 -7 -5 -14 -10 -17
-10 -13 0 -175 -123 -211 -159 -21 -23 -43 -41 -47 -41 -20 0 -5 44 25 72 40
37 185 137 227 155 8 4 29 16 45 27 44 30 59 39 175 97 58 29 112 58 120 65 8
7 19 13 23 13 4 0 33 12 65 27 31 14 91 42 132 61 41 19 102 48 135 63 124 58
355 158 370 160 2 1 31 14 64 30 33 17 63 30 67 30 6 0 114 44 199 80 11 5 52
21 90 36 39 15 89 35 112 45 23 11 45 19 48 19 3 0 25 8 48 19 23 10 69 29
102 41 84 32 158 66 238 106 37 19 72 34 78 34 5 0 27 11 47 25 20 14 42 25
50 25 7 0 56 28 109 63 53 34 100 62 104 62 3 0 29 15 57 33 27 17 53 32 56
32 9 0 126 78 146 97 8 8 45 36 81 61 37 26 107 79 157 117 50 39 103 79 118
90 48 35 109 87 112 96 2 5 10 9 17 9 8 0 18 6 22 13 4 8 53 54 108 103 55 49
110 98 121 109 11 11 34 32 50 47 16 15 45 43 64 63 19 19 44 35 54 35 13 0
-4 -23 -61 -77z m2643 -89 c-1 -1 -14 -4 -29 -8 l-28 -7 23 31 c23 31 23 31
29 8 3 -13 5 -23 5 -24z m-75 -25 c11 -5 17 -14 14 -20 -4 -5 -2 -9 3 -9 5 0
7 -13 4 -30 -4 -30 -22 -43 -22 -16 0 9 -7 12 -19 9 -10 -3 -22 1 -26 8 -5 8
-4 10 3 5 14 -9 15 -5 3 27 -14 37 2 47 40 26z m-341 -39 c0 -5 -5 -10 -11
-10 -5 0 -7 5 -4 10 3 6 8 10 11 10 2 0 4 -4 4 -10z m-55 -97 c-9 -20 -18 -39
-20 -42 -10 -9 -5 29 7 54 18 40 30 29 13 -12z m348 -8 c-3 -9 -8 -14 -10 -11
-3 3 -2 9 2 15 9 16 15 13 8 -4z m-390 -217 c-9 -24 -24 -55 -34 -69 -20 -29
-41 -87 -59 -167 -7 -28 -17 -55 -23 -59 -7 -4 -8 0 -3 13 5 10 16 59 27 109
13 63 27 102 49 133 16 23 30 46 30 50 0 8 21 32 27 32 2 0 -5 -19 -14 -42z
m292 12 c-3 -5 -11 -10 -16 -10 -6 0 -7 5 -4 10 3 6 11 10 16 10 6 0 7 -4 4
-10z m-2190 -129 c8 -28 -3 -48 -38 -64 -22 -11 -37 -13 -49 -6 -20 11 -24 29
-7 29 6 0 10 10 9 23 -3 36 -2 37 39 37 30 0 41 -5 46 -19z m2082 -16 c-23
-22 -33 -18 -12 5 10 11 20 18 23 16 2 -3 -3 -12 -11 -21z m-147 -185 c0 -5
-5 -10 -11 -10 -5 0 -7 5 -4 10 3 6 8 10 11 10 2 0 4 -4 4 -10z m-48 -47 c4
-2 2 -15 -4 -28 -6 -13 -15 -22 -20 -19 -5 3 -16 0 -24 -7 -12 -9 -20 -9 -39
1 -31 17 -32 38 -2 49 23 9 76 12 89 4z m-362 -247 c0 -5 -7 -1 -15 10 -8 10
-14 24 -14 29 0 6 6 1 14 -9 8 -11 15 -24 15 -30z m-2553 -92 c5 -14 -35 -26
-43 -13 -8 14 6 30 24 27 8 -2 17 -8 19 -14z m1730 -176 c-3 -8 -6 -5 -6 6 -1
11 2 17 5 13 3 -3 4 -12 1 -19z m-2119 -5 c-4 -22 -22 -20 -26 1 -2 10 3 16
13 16 10 0 15 -7 13 -17z m2339 -175 c-3 -7 -5 -2 -5 12 0 14 2 19 5 13 2 -7
2 -19 0 -25z m-267 -116 c0 -15 -8 -36 -17 -47 -15 -19 -15 -19 -8 5 4 14 8
37 9 52 1 34 16 25 16 -10z m66 -54 c-9 -32 -8 -42 2 -46 6 -2 10 -8 6 -13 -3
-5 -13 -5 -25 2 -16 8 -19 17 -14 42 5 25 28 57 41 57 0 0 -4 -19 -10 -42z
m-95 -81 c-10 -9 -11 -8 -5 6 3 10 9 15 12 12 3 -3 0 -11 -7 -18z m-4330 -350
c-13 -12 -20 -15 -16 -7 14 26 28 41 33 35 3 -3 -5 -16 -17 -28z m-401 -135
c0 -4 -17 -24 -37 -43 -21 -18 -30 -25 -20 -13 9 11 14 24 11 27 -9 9 15 37
32 37 8 0 14 -4 14 -8z m-92 -85 c-20 -19 -68 -38 -79 -31 -13 8 0 26 15 21 6
-3 20 1 31 9 25 19 52 20 33 1z m-99 -458 c17 -56 9 -58 -11 -3 -8 24 -12 44
-8 44 4 0 12 -18 19 -41z"/>
<path d="M5228 9673 c7 -3 16 -2 19 1 4 3 -2 6 -13 5 -11 0 -14 -3 -6 -6z"/>
<path d="M4920 9200 c0 -5 6 -10 14 -10 8 0 18 5 21 10 3 6 -3 10 -14 10 -12
0 -21 -4 -21 -10z"/>
<path d="M5622 8870 c7 -11 21 -23 30 -26 10 -3 18 -10 18 -16 0 -21 33 -37
52 -24 10 6 18 15 18 20 0 12 -32 35 -48 36 -7 0 -20 7 -28 15 -9 8 -24 15
-35 15 -17 0 -18 -3 -7 -20z"/>
<path d="M6297 8765 c9 -19 20 -35 25 -35 4 0 8 -6 8 -12 0 -7 14 -33 31 -58
39 -58 104 -80 78 -26 -7 15 -4 14 13 -6 13 -16 28 -28 34 -28 15 0 214 -120
214 -129 0 -18 42 -54 67 -57 14 -1 30 -10 35 -18 5 -9 15 -16 23 -16 8 0 28
-13 45 -30 17 -16 36 -30 42 -30 18 0 -10 27 -81 77 -36 26 -67 51 -69 55 -2
4 -9 8 -16 8 -7 0 -21 9 -31 20 -10 11 -24 20 -31 20 -7 0 -36 21 -63 48 -101
95 -170 155 -200 174 -30 19 -31 19 -25 2 4 -11 11 -25 17 -31 5 -7 6 -13 1
-13 -5 0 -18 17 -29 37 -18 34 -75 83 -96 83 -5 0 -1 -16 8 -35z"/>
<path d="M5864 8587 c-7 -20 3 -37 22 -37 18 0 18 24 -1 40 -12 10 -16 9 -21
-3z"/>
<path d="M6016 8411 c-3 -4 5 -18 18 -30 16 -15 26 -19 31 -11 4 6 -3 20 -16
31 -25 22 -26 22 -33 10z"/>
<path d="M7273 7549 c-9 -24 -10 -37 -1 -53 11 -20 12 -19 19 14 3 19 10 43
14 53 5 11 3 17 -7 17 -7 0 -19 -14 -25 -31z"/>
<path d="M7906 7551 c-10 -16 21 -81 38 -81 9 0 16 7 16 15 0 9 6 12 15 9 16
-6 39 35 26 47 -12 13 -89 21 -95 10z"/>
<path d="M8030 7531 c0 -6 4 -13 10 -16 5 -3 8 -22 5 -40 -4 -36 -3 -38 60
-47 11 -2 20 -11 20 -20 0 -9 3 -20 7 -23 4 -4 4 -13 1 -21 -3 -8 1 -14 11
-14 9 0 16 4 16 8 0 23 -54 115 -85 146 -37 38 -45 42 -45 27z"/>
<path d="M8010 7480 c0 -19 3 -21 12 -12 9 9 9 15 0 24 -9 9 -12 7 -12 -12z"/>
<path d="M7092 7444 c-15 -10 -22 -25 -22 -48 0 -42 15 -57 47 -45 13 5 27 8
31 7 4 -1 20 4 35 10 36 15 44 15 50 0 3 -7 6 9 6 36 1 42 -1 47 -14 36 -12
-10 -15 -10 -15 4 0 19 -22 21 -53 5 -16 -9 -22 -9 -25 0 -5 15 -13 14 -40 -5z"/>
<path d="M7895 7420 c22 -24 31 -25 39 -4 4 12 2 15 -9 11 -8 -4 -17 -2 -20 3
-4 6 -11 10 -17 10 -6 0 -3 -9 7 -20z"/>
<path d="M8010 7431 c0 -5 5 -13 10 -16 6 -3 10 -2 10 4 0 5 -4 13 -10 16 -5
3 -10 2 -10 -4z"/>
<path d="M7298 7224 c-10 -21 -9 -27 3 -35 26 -16 38 -10 34 19 -2 15 -4 30
-4 35 -2 17 -22 5 -33 -19z"/>
<path d="M7362 7228 c-18 -18 -14 -30 8 -23 11 4 20 2 20 -4 0 -6 7 -11 16
-11 10 0 14 7 12 23 -3 25 -36 35 -56 15z"/>
<path d="M7113 7212 c-27 -4 -28 -8 -9 -28 17 -16 42 -18 51 -4 3 5 12 7 20 3
16 -5 20 5 7 22 -7 10 -31 13 -69 7z"/>
<path d="M7827 7103 c-12 -12 -7 -40 9 -54 14 -11 18 -10 30 5 10 15 17 16 27
8 18 -16 67 7 67 31 0 13 -9 17 -40 17 -24 0 -40 -5 -40 -12 0 -9 -3 -9 -12 0
-13 13 -31 16 -41 5z"/>
<path d="M8039 7074 c-1 -5 -1 -13 0 -18 1 -5 -7 -6 -18 -3 -12 3 -22 -1 -26
-11 -6 -16 10 -32 33 -32 6 0 12 -4 12 -10 0 -5 7 -7 15 -4 8 4 15 18 15 34 0
25 -28 65 -31 44z"/>
<path d="M8320 7055 c0 -8 5 -15 10 -15 6 0 10 -6 10 -14 0 -8 7 -16 15 -20 8
-3 12 -12 9 -21 -7 -16 21 -22 30 -6 11 17 -12 61 -28 55 -9 -3 -17 3 -21 15
-7 24 -25 28 -25 6z"/>
<path d="M7268 7029 c-27 -15 -26 -134 1 -149 30 -15 32 -13 26 33 l-5 42 15
-33 c12 -26 20 -32 35 -27 11 4 20 2 20 -4 0 -22 21 -10 31 17 6 15 14 34 18
42 11 22 -7 80 -24 80 -18 0 -19 -9 -5 -44 6 -17 6 -26 0 -26 -6 0 -10 8 -10
18 0 10 -6 27 -14 38 -12 15 -18 17 -33 8 -13 -8 -20 -8 -28 2 -7 9 -15 10
-27 3z"/>
<path d="M7920 6991 c0 -7 -4 -10 -9 -6 -5 3 -12 1 -15 -4 -3 -5 0 -11 8 -14
14 -6 32 21 21 31 -3 3 -5 0 -5 -7z"/>
<path d="M8159 6979 c-15 -29 -4 -94 21 -119 19 -19 19 -19 25 0 6 19 7 19 43
0 58 -31 92 -21 92 26 0 13 5 26 11 30 9 5 10 -1 5 -20 -3 -14 -2 -26 3 -26 5
0 11 10 14 22 4 12 9 19 13 16 7 -8 35 16 34 29 0 8 -4 9 -48 11 -13 1 -33 12
-45 25 -24 25 -81 35 -102 17 -9 -7 -15 -8 -20 0 -10 17 -34 11 -46 -11z"/>
<path d="M7820 6965 c0 -17 -41 -20 -70 -5 -30 16 -47 -13 -26 -45 19 -28 36
-33 36 -9 0 14 3 14 15 4 12 -10 18 -10 30 0 12 10 15 10 15 -4 0 -27 17 -18
29 15 8 24 8 36 0 45 -15 18 -29 18 -29 -1z"/>
<path d="M7077 6943 c-3 -5 1 -17 9 -28 14 -18 14 -18 14 2 0 23 -15 39 -23
26z"/>
<path d="M8065 6934 c-10 -8 -17 -14 -14 -15 43 -8 59 -8 64 0 11 18 -29 30
-50 15z"/>
<path d="M8416 6902 c-3 -5 1 -15 9 -22 16 -14 20 -3 6 19 -5 8 -11 9 -15 3z"/>
<path d="M6997 6848 c-4 -12 -4 -24 -1 -27 6 -7 24 20 24 37 0 21 -17 13 -23
-10z"/>
<path d="M8380 6835 c-7 -8 -16 -12 -21 -9 -11 6 -39 -20 -39 -35 0 -6 7 -11
15 -11 8 0 18 0 23 0 4 0 7 3 7 8 0 11 35 57 40 54 3 -2 11 -1 18 1 6 3 2 6
-9 6 -12 1 -27 -6 -34 -14z"/>
<path d="M8041 6821 c-12 -22 -5 -31 26 -31 27 0 42 28 22 41 -22 14 -37 11
-48 -10z"/>
<path d="M8140 6790 c0 -5 4 -10 9 -10 6 0 13 5 16 10 3 6 -1 10 -9 10 -9 0
-16 -4 -16 -10z"/>
<path d="M8380 6785 c0 -8 2 -15 4 -15 2 0 6 7 10 15 3 8 1 15 -4 15 -6 0 -10
-7 -10 -15z"/>
<path d="M7903 6783 c-18 -7 -16 -23 2 -23 8 0 15 7 15 15 0 8 -1 15 -2 14 -2
0 -9 -3 -15 -6z"/>
<path d="M7415 6770 c3 -6 20 -10 37 -10 38 0 34 5 -10 13 -21 4 -31 3 -27 -3z"/>
<path d="M7032 6728 c-18 -18 -16 -88 3 -88 9 0 19 9 23 19 7 20 9 21 37 21
13 0 14 4 5 21 -7 11 -14 18 -17 15 -4 -3 -14 1 -23 9 -13 11 -19 12 -28 3z"/>
<path d="M8175 6700 c-3 -5 -15 -10 -26 -10 -13 0 -18 -5 -15 -12 3 -7 9 -21
12 -30 8 -23 15 -23 42 2 26 24 27 33 8 49 -10 8 -16 9 -21 1z"/>
<path d="M7160 6645 c-10 -19 -10 -28 -1 -39 16 -19 54 -9 46 13 -5 12 -3 13
6 4 6 -6 18 -9 27 -6 10 4 13 2 8 -5 -4 -7 -1 -12 8 -12 9 0 16 8 16 18 0 20
-20 54 -20 35 0 -18 -40 -16 -60 2 -15 14 -18 13 -30 -10z"/>
<path d="M8247 6584 c-10 -10 -9 -64 2 -64 12 0 21 41 12 57 -4 7 -10 10 -14
7z"/>
<path d="M8290 6561 c0 -20 6 -30 19 -34 27 -7 31 0 18 34 -15 38 -37 38 -37
0z"/>
<path d="M7395 6570 c-3 -5 1 -10 10 -10 9 0 13 5 10 10 -3 6 -8 10 -10 10 -2
0 -7 -4 -10 -10z"/>
<path d="M7933 6573 c-21 -8 -15 -22 7 -16 11 3 20 9 20 14 0 10 -8 10 -27 2z"/>
<path d="M8088 6540 c-7 -11 -21 -20 -30 -20 -10 0 -18 -4 -18 -10 0 -13 6
-13 31 1 14 7 24 7 33 0 15 -13 56 12 56 35 0 22 -57 18 -72 -6z"/>
<path d="M7239 6514 c-8 -10 -15 -12 -23 -4 -17 17 -46 12 -46 -10 0 -24 39
-48 50 -30 10 15 21 15 32 -2 7 -10 11 -9 23 6 20 26 19 33 -4 45 -14 8 -22 7
-32 -5z"/>
<path d="M7370 6466 c0 -29 10 -39 27 -25 19 16 16 36 -7 42 -16 4 -20 0 -20
-17z"/>
<path d="M8366 6453 c-11 -11 -6 -23 9 -23 8 0 15 4 15 9 0 13 -16 22 -24 14z"/>
<path d="M7420 6425 c0 -8 5 -15 10 -15 6 0 10 7 10 15 0 8 -4 15 -10 15 -5 0
-10 -7 -10 -15z"/>
<path d="M7470 6405 c-10 -12 -10 -19 -2 -27 7 -7 12 -10 13 -7 0 2 2 14 5 27
5 26 1 28 -16 7z"/>
<path d="M7810 6360 c0 -5 -4 -10 -10 -10 -5 0 -38 -13 -73 -29 -89 -41 -179
-58 -223 -42 -36 13 -54 8 -54 -14 0 -8 -4 -16 -9 -19 -5 -4 -7 2 -4 13 7 28
-13 34 -31 9 -22 -31 -20 -65 3 -78 16 -8 22 -6 30 7 6 10 11 13 11 6 0 -9 10
-8 41 2 23 8 44 13 48 11 6 -4 2 -58 -15 -198 -4 -41 -3 -63 6 -73 14 -17 50
-20 50 -5 0 7 6 7 19 0 11 -5 37 -10 59 -10 36 0 40 2 50 39 7 21 12 46 12 55
0 16 44 41 67 37 13 -2 19 26 28 139 4 41 13 90 22 107 8 18 13 40 9 48 -6 17
-36 21 -36 5z m-210 -233 c0 -18 -4 -38 -8 -45 -5 -7 -8 8 -8 37 1 27 4 47 9
44 4 -2 7 -19 7 -36z"/>
<path d="M8160 6306 c0 -19 -4 -23 -20 -19 -14 4 -20 0 -20 -11 0 -9 8 -16 18
-16 10 0 24 -6 31 -12 10 -11 15 -10 25 4 7 10 23 19 34 21 36 5 35 14 -3 21
-19 4 -35 11 -35 15 0 5 -7 11 -15 15 -11 4 -15 -1 -15 -18z"/>
<path d="M8560 6304 c0 -14 3 -14 15 -4 8 7 15 14 15 16 0 2 -7 4 -15 4 -8 0
-15 -7 -15 -16z"/>
<path d="M8616 6298 c7 -11 34 -10 34 1 0 6 -9 9 -19 8 -11 0 -17 -5 -15 -9z"/>
<path d="M8285 6290 c3 -5 13 -10 21 -10 8 0 12 5 9 10 -3 6 -13 10 -21 10 -8
0 -12 -4 -9 -10z"/>
<path d="M8402 6254 c-7 -12 -3 -24 12 -41 l21 -25 6 29 c9 44 -20 71 -39 37z"/>
<path d="M8005 6239 c-4 -6 -5 -13 -2 -16 7 -7 27 6 27 18 0 12 -17 12 -25 -2z"/>
<path d="M8410 6151 c0 -12 5 -21 10 -21 6 0 10 6 10 14 0 8 -4 18 -10 21 -5
3 -10 -3 -10 -14z"/>
<path d="M8083 6141 c-3 -12 -11 -17 -19 -14 -8 3 -25 -2 -39 -11 -27 -18 -39
-21 -31 -7 9 14 -16 20 -36 9 -20 -10 -25 -48 -6 -48 6 0 -4 -13 -22 -30 -29
-26 -41 -30 -91 -30 -80 0 -109 -26 -109 -98 0 -28 5 -54 12 -58 8 -5 5 -11
-7 -20 -14 -11 -22 -11 -33 -2 -11 10 -17 8 -28 -7 -18 -25 -18 -27 8 -55 13
-14 23 -19 26 -12 2 7 23 12 47 12 37 0 45 4 65 33 21 30 158 127 180 127 6 0
10 -7 10 -15 0 -8 6 -15 14 -15 9 0 18 18 24 46 8 37 7 50 -5 64 -9 10 -22 16
-30 13 -24 -9 -4 21 29 44 26 19 34 20 40 9 11 -19 41 -10 57 17 11 17 11 22
1 25 -7 3 -21 13 -32 24 -19 19 -20 19 -25 -1z m-303 -221 c0 -5 -4 -10 -10
-10 -5 0 -10 5 -10 10 0 6 5 10 10 10 6 0 10 -4 10 -10z"/>
<path d="M7450 6132 c0 -15 -6 -17 -35 -14 -25 3 -36 0 -41 -12 -8 -20 -24
-21 -24 -1 0 37 -43 -3 -80 -75 -20 -38 -24 -60 -24 -147 -1 -82 2 -105 16
-119 10 -10 21 -13 30 -8 7 5 38 15 68 21 30 7 66 16 80 19 48 12 75 11 93 -4
20 -18 23 -16 31 25 6 26 3 34 -13 42 -13 7 -22 8 -26 1 -7 -11 -40 3 -65 29
-13 13 -13 14 1 9 14 -6 17 9 23 113 4 65 4 123 1 129 -10 17 -35 11 -35 -8z
m-163 -299 c-3 -10 -5 -4 -5 12 0 17 2 24 5 18 2 -7 2 -21 0 -30z"/>
<path d="M8187 5949 c4 -13 9 -17 15 -11 11 11 3 32 -12 32 -4 0 -6 -9 -3 -21z"/>
<path d="M7824 5785 c-9 -22 1 -29 15 -11 8 10 9 16 1 21 -5 3 -13 -1 -16 -10z"/>
<path d="M7240 5706 c0 -9 5 -16 10 -16 6 0 10 4 10 9 0 6 -4 13 -10 16 -5 3
-10 -1 -10 -9z"/>
<path d="M7305 5640 c-8 -14 3 -30 21 -30 16 0 16 2 8 24 -7 18 -20 21 -29 6z"/>
<path d="M7360 5640 c0 -5 5 -10 10 -10 6 0 10 5 10 10 0 6 -4 10 -10 10 -5 0
-10 -4 -10 -10z"/>
<path d="M7546 5623 c-11 -11 -6 -23 9 -23 8 0 15 4 15 9 0 13 -16 22 -24 14z"/>
<path d="M7506 5498 c-24 -13 -19 -61 9 -92 30 -32 45 -33 45 -3 0 15 3 18 8
9 7 -10 15 -10 36 -2 15 5 31 8 35 6 17 -11 32 11 22 35 -5 13 -12 32 -15 43
-5 13 -10 15 -19 8 -7 -6 -31 -7 -59 -3 -25 4 -54 4 -62 -1z"/>
<path d="M7803 5444 c-3 -8 1 -23 10 -32 15 -14 17 -14 23 1 8 21 -1 47 -16
47 -6 0 -13 -7 -17 -16z"/>
<path d="M7645 5350 c-8 -26 5 -90 19 -90 21 -1 -45 -50 -67 -50 -12 0 -37 -9
-54 -20 -18 -11 -33 -15 -33 -9 0 14 -42 7 -47 -7 -2 -7 3 -19 12 -27 8 -9 15
-22 15 -30 0 -18 49 -107 59 -107 3 0 12 -13 18 -30 13 -34 33 -40 33 -10 0
11 -4 20 -8 20 -5 0 -15 12 -22 28 -8 15 -22 36 -31 47 -9 11 -20 36 -23 55
-7 33 -6 34 8 15 9 -11 20 -25 26 -32 5 -7 10 -17 10 -24 0 -6 8 -23 18 -37 9
-15 22 -36 28 -47 17 -31 59 -42 97 -26 18 8 41 14 52 14 11 -1 29 11 40 26
27 36 29 146 2 166 -12 9 -17 25 -16 51 1 41 -30 144 -43 144 -4 0 -8 -16 -8
-35 0 -19 -4 -35 -10 -35 -5 0 -10 12 -10 26 0 19 -4 25 -15 20 -9 -3 -15 0
-15 9 0 22 -28 18 -35 -5z m55 -55 c0 -8 -4 -17 -10 -20 -6 -4 -10 5 -10 20 0
15 4 24 10 20 6 -3 10 -12 10 -20z"/>
<path d="M7259 5094 c-10 -13 -10 -17 2 -25 35 -22 68 -5 42 23 -20 22 -27 22
-44 2z"/>
<path d="M7350 5027 c0 -33 27 -66 38 -49 8 12 15 11 40 -2 34 -18 59 -13 65
12 3 12 5 10 6 -5 2 -39 21 -25 21 15 0 25 -3 32 -9 23 -7 -11 -10 -10 -18 3
-12 22 -64 28 -84 9 -14 -12 -17 -12 -22 2 -10 24 -37 18 -37 -8z"/>
<path d="M7305 4980 c27 -12 35 -12 35 0 0 6 -12 10 -27 9 -25 0 -26 -1 -8 -9z"/>
<path d="M7363 4792 c-44 -39 -50 -50 -42 -65 20 -34 1 -29 -26 7 -37 49 -58
48 -50 -1 13 -71 26 -112 41 -128 17 -17 44 -20 44 -5 0 6 9 5 24 -1 20 -9 30
-7 62 15 55 37 74 35 74 -9 0 -24 6 -37 19 -45 25 -13 38 4 21 25 -17 20 -3
19 17 -1 10 -9 25 -13 39 -10 13 4 24 1 26 -6 3 -7 10 -8 17 -3 16 10 8 88
-14 133 -18 35 -45 50 -46 24 0 -10 -3 -12 -6 -5 -2 7 -19 15 -37 18 -27 6
-34 13 -45 50 -21 71 -46 72 -118 7z m214 -139 c-3 -10 -5 -4 -5 12 0 17 2 24
5 18 2 -7 2 -21 0 -30z"/>
<path d="M7490 4806 c0 -27 15 -42 25 -26 8 13 -3 50 -16 50 -5 0 -9 -11 -9
-24z"/>
<path d="M7676 4765 c-4 -10 1 -15 16 -15 17 0 18 2 8 15 -7 8 -14 15 -15 15
-2 0 -5 -7 -9 -15z"/>
<path d="M7160 4745 c-16 -19 -6 -45 19 -45 23 0 35 28 20 46 -15 18 -24 18
-39 -1z"/>
<path d="M7137 4683 c-3 -5 -8 -28 -12 -52 -9 -53 10 -54 37 0 10 19 18 28 18
21 0 -18 -20 -55 -38 -68 -20 -14 -11 -50 12 -46 9 2 24 -2 33 -9 12 -10 16
-10 24 2 4 8 6 22 3 32 -3 10 4 34 15 53 31 53 28 63 -19 57 -26 -4 -40 -2
-40 6 0 12 -26 15 -33 4z"/>
<path d="M7485 4471 c-6 -20 8 -65 24 -75 5 -4 12 3 16 14 5 15 11 18 23 12 9
-5 26 -8 37 -8 15 1 19 7 16 26 -3 26 -21 44 -31 32 -9 -13 -50 -9 -50 5 0 20
-28 16 -35 -6z"/>
<path d="M7004 4274 c-17 -41 -18 -81 -1 -87 6 -3 -19 -6 -58 -6 -38 -1 -77
-2 -85 -3 -8 0 -25 2 -37 6 -18 6 -26 1 -43 -26 -30 -50 -24 -105 17 -146 11
-11 14 -11 19 3 6 14 9 14 29 -5 14 -13 36 -21 56 -22 58 0 71 -7 66 -34 -6
-31 43 -77 53 -50 5 14 8 14 34 1 38 -20 66 -19 82 3 13 16 13 16 14 0 0 -29
27 -20 40 13 11 27 10 39 -7 90 -19 54 -19 63 -7 116 16 68 18 169 4 178 -5 3
-10 -2 -10 -11 0 -15 -2 -16 -17 -2 -12 10 -38 16 -77 15 -56 0 -59 -1 -72
-33z"/>
<path d="M6553 4022 c-24 -15 -35 -65 -22 -104 12 -36 49 -61 49 -32 0 11 4
12 19 4 11 -5 30 -10 43 -10 26 0 68 -33 68 -52 0 -7 -6 -3 -14 7 -12 16 -16
17 -30 6 -18 -15 -22 -51 -6 -51 6 0 10 -7 10 -15 0 -8 5 -15 12 -15 7 0 -12
-25 -42 -56 l-55 -56 -58 5 c-32 3 -64 10 -72 17 -11 9 -18 7 -34 -9 -15 -15
-21 -17 -21 -7 0 16 -37 28 -46 15 -10 -16 7 -69 22 -69 8 0 14 5 14 10 0 6
13 9 28 8 26 -2 28 -5 28 -41 -1 -46 22 -69 51 -51 13 8 26 7 48 -2 17 -7 39
-13 49 -14 10 0 25 -8 32 -17 12 -17 13 -16 14 4 0 12 5 25 10 28 6 3 10 22
10 41 0 23 -4 33 -11 28 -7 -4 -10 0 -7 11 3 19 104 79 118 70 16 -10 38 6 43
31 3 16 0 24 -9 24 -22 0 -16 24 11 50 25 23 25 23 40 4 13 -18 14 -16 15 27
0 33 -5 51 -19 63 -12 11 -21 14 -26 7 -7 -13 -54 8 -75 34 -11 13 -10 15 3
10 23 -10 31 13 13 40 -9 13 -16 31 -16 39 0 24 -80 31 -120 11 -29 -15 -33
-15 -43 -1 -7 9 -17 12 -24 8z"/>
<path d="M6492 3773 c-22 -25 -30 -49 -13 -39 5 4 12 0 15 -6 6 -17 36 19 36
43 0 28 -14 29 -38 2z"/>
<path d="M6607 3744 c-4 -4 -7 -18 -7 -31 0 -21 2 -22 20 -11 11 7 19 19 18
27 -3 16 -21 25 -31 15z"/>
<path d="M6676 3582 c-8 -13 3 -42 15 -42 11 0 11 21 0 39 -5 8 -11 9 -15 3z"/>
<path d="M6726 3544 c-5 -14 -4 -15 9 -4 17 14 19 20 6 20 -5 0 -12 -7 -15
-16z"/>
<path d="M6716 3391 c-37 -43 -47 -134 -17 -151 26 -13 31 -13 31 4 0 11 8 12
42 5 27 -7 45 -6 52 1 15 15 26 12 26 -7 0 -12 7 -7 20 15 24 39 24 37 5 55
-13 13 -11 16 15 26 17 5 38 17 46 26 14 13 13 16 -11 25 -37 14 -48 12 -41
-7 6 -15 5 -16 -11 -1 -26 23 -139 29 -157 9z"/>
<path d="M6065 3299 c-22 -12 -44 -25 -49 -30 -5 -5 -15 -1 -22 9 -11 16 -14
16 -33 -2 -28 -26 -28 -77 1 -95 18 -11 22 -11 29 1 6 11 22 14 58 10 97 -8
146 40 105 103 -20 30 -38 31 -89 4z"/>
<path d="M6467 3243 c-12 -11 -7 -59 7 -79 13 -16 18 -17 36 -6 11 7 25 10 30
7 4 -3 16 2 24 11 15 14 16 14 16 -1 0 -9 6 -15 13 -12 12 4 15 72 4 84 -3 3
-14 2 -24 -2 -24 -11 -63 -13 -63 -3 0 10 -34 11 -43 1z"/>
<path d="M7064 3205 c-16 -25 -16 -27 6 -50 18 -19 26 -22 31 -13 10 16 56 21
64 7 12 -18 25 2 25 36 0 34 -17 56 -29 38 -10 -17 -61 -22 -61 -7 0 22 -18
16 -36 -11z"/>
<path d="M6230 3206 c0 -9 -7 -16 -15 -16 -25 0 -17 -15 16 -27 30 -12 30 -11
27 19 -3 32 -28 53 -28 24z"/>
<path d="M5966 3051 c-26 -29 -13 -95 25 -128 23 -21 29 -35 29 -69 0 -25 6
-49 16 -58 19 -20 19 -20 39 1 11 10 19 12 23 6 4 -5 17 -15 30 -22 12 -6 22
-17 22 -23 0 -6 -9 -3 -20 7 -18 16 -20 16 -26 1 -6 -16 39 -86 55 -86 5 0 14
-28 20 -61 13 -74 34 -103 72 -95 14 3 31 0 36 -5 14 -14 65 -14 92 0 12 7 29
10 37 7 29 -11 48 110 24 155 -15 28 -43 25 -34 -3 6 -22 6 -22 -12 -7 -11 9
-44 22 -74 29 -45 10 -64 22 -108 67 -44 44 -52 56 -42 68 16 19 77 19 87 0 6
-9 13 -11 23 -5 23 14 20 146 -3 191 l-19 34 -111 -3 c-90 -3 -115 -7 -125
-20 -11 -14 -13 -14 -12 -2 6 44 -14 54 -44 21z m250 -423 c3 -13 15 -35 25
-50 25 -34 24 -46 -1 -23 -11 10 -20 23 -20 29 0 6 -7 23 -14 39 -8 15 -11 27
-6 27 5 0 12 -10 16 -22z"/>
<path d="M6300 3019 c0 -17 7 -46 16 -65 11 -23 15 -49 11 -80 -6 -60 0 -83
24 -81 13 1 19 9 20 27 1 14 3 18 5 10 7 -23 43 -44 48 -28 34 113 40 223 15
239 -18 11 -29 11 -29 -1 0 -5 -6 -8 -12 -6 -7 3 -32 7 -55 10 -43 6 -43 6
-43 -25z m104 -114 c3 -9 0 -15 -9 -15 -8 0 -15 7 -15 15 0 8 4 15 9 15 5 0
11 -7 15 -15z"/>
<path d="M6687 2903 c-16 -15 -5 -51 28 -85 18 -21 36 -38 39 -38 11 0 6 36
-6 50 -7 8 1 2 19 -14 27 -24 35 -27 48 -16 10 8 15 9 15 1 0 -6 7 -11 16 -11
12 0 14 10 12 53 -3 44 -6 52 -23 52 -11 0 -19 -6 -17 -12 3 -16 7 -17 -58 7
-61 22 -64 23 -73 13z"/>
<path d="M5135 2820 c3 -5 11 -10 16 -10 6 0 7 5 4 10 -3 6 -11 10 -16 10 -6
0 -7 -4 -4 -10z"/>
<path d="M6515 2720 c-8 -26 11 -59 32 -55 10 2 22 4 26 4 5 1 5 7 2 14 -4 6
0 4 8 -5 18 -23 27 -23 27 -1 0 14 3 13 16 -5 8 -12 20 -20 25 -17 14 9 10 48
-7 70 -13 17 -17 18 -27 5 -14 -18 -43 -19 -74 -2 -19 10 -23 9 -28 -8z"/>
<path d="M5877 2702 c-22 -25 -21 -47 3 -70 22 -20 83 -22 116 -4 13 7 22 6
33 -6 14 -14 16 -12 22 18 6 26 3 40 -12 58 -16 20 -19 22 -19 7 0 -14 -3 -15
-15 -5 -8 7 -29 10 -45 8 -17 -3 -33 -1 -36 4 -9 14 -30 9 -47 -10z"/>
<path d="M5420 2541 c0 -6 -14 -11 -31 -11 -19 0 -37 -7 -45 -17 -12 -17 -14
-17 -28 2 -15 20 -15 20 -38 -3 -31 -30 -31 -89 0 -122 21 -22 25 -23 35 -9 9
12 27 15 75 14 69 -3 75 1 87 67 5 26 2 43 -9 60 -9 12 -16 19 -16 14 0 -5 -7
-3 -15 4 -10 9 -15 9 -15 1z"/>
<path d="M5770 2521 c0 -5 -19 -12 -42 -16 -24 -4 -57 -15 -73 -26 -30 -18
-31 -18 -43 2 -39 62 -57 -85 -24 -186 18 -52 55 -83 78 -65 17 15 24 1 13
-27 -15 -39 -11 -120 7 -137 17 -18 34 -21 34 -7 0 5 19 10 43 10 75 2 120 9
129 23 10 16 0 98 -14 116 -15 17 -39 15 -32 -3 8 -20 2 -19 -46 6 -40 21 -49
34 -29 41 7 2 14 48 19 113 4 61 11 118 15 129 5 11 3 21 -6 27 -18 11 -29 11
-29 0z m-52 -326 c7 -14 11 -47 11 -73 l-1 -47 -9 50 c-5 28 -14 58 -19 67
-12 22 -13 28 -2 28 5 0 14 -11 20 -25z"/>
<path d="M5060 2444 c-11 -13 -9 -19 14 -42 20 -20 29 -24 35 -14 4 7 21 12
37 10 37 -2 54 8 54 32 0 27 -15 32 -55 21 -21 -5 -35 -6 -35 0 0 15 -37 10
-50 -7z"/>
<path d="M7212 2358 c-25 -15 -30 -23 -22 -33 9 -11 16 -8 36 10 36 33 26 49
-14 23z"/>
<path d="M5931 2326 c-11 -12 -8 -24 16 -66 15 -27 31 -50 36 -50 4 0 7 -4 7
-9 0 -5 12 -28 27 -50 28 -43 49 -52 59 -26 5 12 10 13 20 4 10 -8 26 2 71 45
32 31 64 54 71 51 7 -2 12 4 12 16 0 12 -5 19 -12 16 -7 -2 -25 4 -39 14 -15
11 -53 21 -90 24 -120 11 -142 16 -154 31 -10 14 -12 14 -24 0z m59 -48 c0 -6
-6 -5 -15 2 -8 7 -15 14 -15 16 0 2 7 1 15 -2 8 -4 15 -11 15 -16z"/>
<path d="M4970 2276 c0 -10 -8 -16 -23 -16 -13 0 -28 -5 -33 -10 -8 -8 -15 -6
-23 4 -10 12 -18 13 -32 5 -15 -7 -19 -21 -19 -57 0 -27 6 -54 13 -61 10 -11
5 -13 -27 -8 -22 4 -43 12 -47 18 -4 7 -17 9 -32 5 -14 -3 -29 -2 -32 4 -12
19 -35 10 -51 -21 -15 -29 -15 -32 5 -50 17 -16 25 -18 41 -9 11 6 24 9 29 6
4 -3 52 -7 106 -8 l97 -2 20 52 c11 29 24 52 29 52 15 0 10 86 -6 100 -12 10
-15 10 -15 -4z"/>
<path d="M5490 2208 c1 -31 1 -32 15 -13 17 21 15 37 -3 43 -8 2 -12 -8 -12
-30z"/>
<path d="M7025 2149 c-11 -17 1 -21 15 -4 8 9 8 15 2 15 -6 0 -14 -5 -17 -11z"/>
<path d="M4100 2124 c-10 -11 -11 -23 -4 -41 11 -33 27 -39 48 -18 9 9 16 11
16 5 0 -7 6 -8 19 0 14 7 21 6 24 -3 6 -16 36 21 37 46 0 24 -23 31 -60 19
-18 -7 -32 -7 -35 -1 -9 14 -31 11 -45 -7z"/>
<path d="M5242 2118 c-16 -16 -15 -43 1 -57 8 -6 16 -10 18 -8 2 1 -2 -4 -10
-10 -23 -20 -44 -16 -94 18 -26 17 -54 29 -62 25 -8 -3 -17 -1 -20 4 -11 17
-34 11 -49 -13 -30 -44 27 -196 57 -154 6 8 7 8 5 -2 -3 -8 -17 -19 -34 -24
-16 -4 -38 -12 -49 -17 -44 -18 -58 -20 -71 -9 -34 28 -63 -63 -31 -95 21 -22
57 -26 58 -8 0 11 2 12 6 5 7 -20 58 -15 102 8 22 11 44 18 49 15 5 -3 17 3
27 14 16 17 17 26 7 57 -13 43 -9 53 24 53 15 0 41 15 67 41 41 39 44 40 102
37 73 -3 85 4 85 46 0 39 -32 82 -52 69 -20 -12 -81 -10 -96 5 -17 15 -25 15
-40 0z"/>
<path d="M6970 2110 c-26 -23 -50 -26 -50 -7 0 16 -20 -13 -20 -30 0 -23 27
-14 70 22 23 19 38 35 32 35 -5 0 -19 -9 -32 -20z"/>
<path d="M6800 1969 c0 -5 5 -7 10 -4 6 3 10 8 10 11 0 2 -4 4 -10 4 -5 0 -10
-5 -10 -11z"/>
<path d="M5240 1940 c0 -5 4 -10 9 -10 6 0 13 5 16 10 3 6 -1 10 -9 10 -9 0
-16 -4 -16 -10z"/>
<path d="M6767 1943 c-12 -12 -7 -22 8 -17 8 4 15 10 15 15 0 11 -14 12 -23 2z"/>
<path d="M3961 1906 c-7 -8 -11 -30 -9 -48 3 -32 5 -33 48 -35 56 -3 130 17
130 35 0 7 7 20 15 29 8 8 13 18 10 23 -5 9 -96 5 -132 -6 -14 -4 -23 -2 -23
5 0 16 -25 14 -39 -3z"/>
<path d="M3767 1873 c-12 -11 -8 -48 7 -68 14 -19 15 -19 35 -1 15 14 30 17
59 14 32 -5 41 -2 52 15 10 18 10 22 -6 34 -21 15 -31 16 -38 4 -4 -5 -22 -5
-43 0 -46 10 -58 11 -66 2z"/>
<path d="M4564 1809 c3 -33 12 -75 20 -92 8 -18 17 -42 21 -54 5 -18 10 -21
29 -13 32 12 79 16 92 7 9 -5 14 17 19 75 5 58 4 83 -4 86 -6 2 -11 12 -11 23
0 23 -25 35 -43 21 -15 -12 -65 -13 -73 -1 -3 5 -17 9 -31 9 -26 0 -26 0 -19
-61z"/>
<path d="M5206 1811 c-24 -26 -13 -81 15 -81 13 0 19 7 20 23 1 15 3 17 6 6 3
-14 9 -15 41 -6 42 13 62 29 62 51 0 18 -20 32 -29 19 -7 -10 -57 -10 -68 0
-12 12 -29 7 -47 -12z"/>
<path d="M2961 1806 c-25 -30 12 -88 42 -69 7 4 20 8 30 9 32 3 35 4 40 24 6
22 -10 30 -39 19 -15 -5 -25 -2 -35 12 -16 23 -23 24 -38 5z"/>
<path d="M5972 1805 c14 -15 -13 -35 -32 -25 -15 8 -24 4 -44 -21 -14 -17 -26
-27 -26 -22 0 5 5 14 12 21 15 15 9 21 -23 24 -22 3 -24 -1 -27 -39 -2 -29 3
-51 15 -68 22 -30 33 -32 33 -5 0 11 5 20 10 20 6 0 10 -4 10 -9 0 -14 63 -26
68 -12 2 6 8 9 12 6 11 -7 23 51 18 95 -2 19 -10 35 -18 38 -8 3 -12 1 -8 -3z"/>
<path d="M5410 1751 c0 -6 5 -13 10 -16 6 -3 10 1 10 9 0 9 -4 16 -10 16 -5 0
-10 -4 -10 -9z"/>
<path d="M2724 1712 c-31 -21 -25 -96 9 -114 16 -8 22 -8 25 1 2 6 14 8 28 5
36 -9 123 31 124 57 0 3 -9 15 -20 27 -30 32 -75 29 -112 -9 -27 -26 -30 -27
-25 -9 10 37 -5 59 -29 42z"/>
<path d="M2581 1654 c0 -11 3 -14 6 -6 3 7 2 16 -1 19 -3 4 -6 -2 -5 -13z"/>
<path d="M3420 1630 c0 -5 -9 -10 -19 -10 -11 0 -23 -5 -27 -12 -5 -8 -11 -6
-20 6 -23 32 -49 16 -52 -33 -5 -62 1 -72 32 -58 14 7 26 16 26 20 0 5 4 6 9
3 5 -4 21 -2 35 4 21 8 26 7 26 -6 0 -14 3 -14 15 -4 23 19 19 77 -5 90 -14 7
-20 7 -20 0z"/>
<path d="M6016 1631 c-3 -5 -16 -6 -29 -4 -15 3 -31 -2 -42 -14 -16 -15 -35
-18 -118 -18 -82 0 -102 -3 -110 -16 -10 -15 -12 -15 -27 3 -15 19 -17 19 -33
3 -12 -11 -15 -25 -11 -43 9 -36 12 -38 35 -24 14 9 35 11 67 6 26 -5 51 -7
55 -6 4 1 22 4 40 7 18 3 50 9 72 15 22 5 55 10 72 10 28 0 35 5 48 36 8 20
15 38 15 39 0 8 -30 13 -34 6z"/>
<path d="M2539 1596 c-5 -6 -9 -16 -9 -23 0 -7 -1 -13 -2 -13 -2 -1 -30 -3
-63 -7 -33 -3 -67 -12 -76 -19 -21 -19 -29 -18 -29 6 0 24 -13 26 -34 4 -23
-22 -21 -70 3 -77 51 -13 176 22 256 73 44 27 56 40 52 54 -4 13 -85 14 -98 2z"/>
<path d="M4966 1534 c-7 -19 10 -44 30 -44 17 0 18 32 2 48 -16 16 -25 15 -32
-4z"/>
<path d="M5052 1529 c1 -13 8 -23 13 -21 15 3 12 35 -3 40 -9 3 -13 -3 -10
-19z"/>
<path d="M3821 1504 c-35 -45 -20 -143 22 -145 79 -4 108 -1 125 14 10 9 26
14 39 11 29 -8 36 9 29 70 -5 37 -13 55 -27 65 -24 14 -39 7 -21 -11 7 -7 12
-16 12 -22 0 -5 -9 0 -20 12 -20 21 -35 22 -87 7 -6 -2 -17 3 -23 11 -17 20
-26 18 -49 -12z"/>
<path d="M6065 1486 c-17 -12 -46 -34 -65 -49 l-35 -29 60 32 c68 36 79 44 74
57 -2 5 -18 0 -34 -11z"/>
<path d="M5370 1478 c-32 -5 -58 -15 -63 -24 -8 -14 -11 -14 -26 1 -38 33 -74
-13 -69 -89 2 -34 9 -52 21 -60 12 -7 20 -8 25 -1 4 6 29 12 56 13 26 2 67 9
90 17 22 8 52 16 66 18 14 2 43 11 64 20 22 10 50 20 63 23 28 7 29 14 3 46
-15 20 -35 28 -82 36 -68 12 -67 12 -148 0z"/>
<path d="M6118 1476 c-18 -13 -24 -36 -10 -36 4 0 21 10 37 21 17 12 22 19 13
16 -9 -3 -18 -2 -20 3 -2 5 -11 3 -20 -4z"/>
<path d="M4162 1454 c-25 -17 -27 -32 -10 -69 12 -27 48 -35 48 -10 0 12 4 13
19 6 10 -6 28 -8 40 -6 15 3 21 -1 21 -13 1 -14 4 -13 20 6 16 19 17 27 8 48
-7 15 -17 23 -26 19 -8 -3 -21 3 -28 12 -12 16 -15 16 -23 3 -9 -12 -11 -12
-17 3 -8 21 -23 22 -52 1z"/>
<path d="M5644 1445 c-9 -37 2 -58 28 -52 17 5 49 -4 66 -18 2 -2 -4 -15 -13
-29 -26 -39 -6 -76 33 -63 4 1 6 12 4 25 -1 12 2 22 8 22 5 0 10 -5 10 -11 0
-11 41 -2 50 11 3 4 23 16 45 26 l40 18 -39 4 c-22 2 -53 14 -70 26 -17 13
-43 26 -58 30 -16 3 -28 11 -28 16 0 6 -11 8 -25 4 -15 -4 -25 -2 -25 5 0 21
-20 11 -26 -14z"/>
<path d="M3249 1449 c0 -2 -2 -11 -4 -19 -1 -10 5 -17 17 -17 17 -2 18 0 7 15
-8 9 -15 19 -16 21 -2 2 -3 2 -4 0z"/>
<path d="M3493 1400 c-37 -30 -25 -94 22 -117 22 -10 25 -9 26 10 0 12 3 16 6
10 6 -15 33 -17 33 -3 0 6 9 10 20 10 26 0 44 43 29 68 -8 13 -22 17 -52 15
-25 -1 -44 3 -51 12 -9 12 -14 11 -33 -5z m44 -52 c-3 -7 -5 -2 -5 12 0 14 2
19 5 13 2 -7 2 -19 0 -25z"/>
<path d="M4336 1352 c-3 -3 -6 -21 -6 -41 1 -27 7 -41 25 -54 22 -15 25 -16
25 -2 0 17 21 20 36 5 7 -7 19 -8 37 -1 15 6 33 8 41 5 18 -7 31 34 22 64 -8
24 -36 38 -36 18 0 -12 -6 -12 -30 -3 -23 9 -35 9 -50 -1 -11 -7 -20 -8 -20
-3 0 10 -36 21 -44 13z"/>
<path d="M5436 1254 c-9 -8 -16 -19 -16 -24 0 -16 21 -22 35 -10 11 9 15 10
15 1 0 -7 -15 -18 -34 -26 -19 -8 -37 -19 -41 -25 -3 -5 -15 -10 -26 -10 -10
0 -28 -6 -39 -12 -17 -11 -22 -10 -29 0 -5 8 -17 12 -27 10 -22 -4 -32 -61
-14 -83 17 -20 42 -7 35 19 -6 19 -5 20 8 4 19 -23 50 -23 116 3 127 48 251
125 211 130 -20 3 -25 4 -38 13 -7 4 -34 8 -60 8 -26 0 -55 5 -64 9 -11 6 -22
4 -32 -7z"/>
<path d="M5662 1229 c-7 -12 -11 -24 -7 -27 7 -8 25 17 25 36 0 17 -3 15 -18
-9z"/>
<path d="M2980 1180 c0 -6 7 -10 16 -8 10 2 19 -1 20 -7 5 -13 -92 -10 -128 4
-21 8 -27 7 -32 -5 -12 -31 -5 -71 16 -93 20 -22 22 -22 34 -7 10 14 16 15 33
7 15 -8 31 -8 61 1 34 11 41 18 46 46 5 24 2 38 -11 52 -19 21 -55 27 -55 10z"/>
<path d="M3071 1172 c-21 -40 -8 -62 35 -62 11 0 14 7 9 23 -5 19 -4 20 5 5
14 -23 47 -23 59 0 12 23 1 41 -24 40 -11 0 -32 2 -47 6 -21 6 -29 3 -37 -12z"/>
<path d="M3194 1168 c3 -13 6 -27 6 -31 0 -5 5 -5 10 -2 17 10 12 55 -6 55
-12 0 -15 -6 -10 -22z"/>
<path d="M4712 1150 c-18 -17 -22 -18 -22 -5 0 9 -9 15 -25 15 -25 0 -25 -1
-25 -83 0 -54 5 -90 13 -102 19 -24 37 -11 38 28 0 30 1 30 10 9 7 -18 13 -21
25 -14 9 5 26 7 37 4 19 -5 20 -2 14 54 -5 55 -25 114 -38 114 -3 0 -15 -9
-27 -20z"/>
<path d="M5060 1118 c0 -7 4 -19 9 -27 11 -17 23 1 15 23 -7 19 -24 21 -24 4z"/>
<path d="M1780 1100 c0 -5 5 -10 10 -10 6 0 10 5 10 10 0 6 -4 10 -10 10 -5 0
-10 -4 -10 -10z"/>
<path d="M3998 1089 c-26 -27 -22 -58 10 -85 31 -27 39 -29 45 -11 3 9 7 9 18
0 8 -6 35 -13 59 -15 34 -2 44 -7 40 -18 -16 -55 19 -134 51 -115 7 5 28 8 48
8 19 0 46 6 60 13 19 10 27 10 32 2 12 -19 39 10 39 41 0 32 -46 131 -60 131
-6 0 -10 -9 -10 -20 0 -20 0 -20 -42 -1 -114 51 -116 52 -216 64 -12 2 -28 9
-34 15 -15 15 -19 14 -40 -9z"/>
<path d="M4797 1093 c-12 -12 -7 -40 9 -54 13 -11 17 -10 26 5 9 16 12 16 33
2 29 -19 40 -7 30 32 -4 18 -9 22 -14 13 -7 -10 -13 -10 -29 -2 -23 12 -45 14
-55 4z"/>
<path d="M5072 1010 c-14 -35 2 -63 31 -55 37 11 91 41 94 52 7 19 -36 25 -66
10 -25 -12 -29 -12 -39 2 -9 14 -11 13 -20 -9z"/>
<path d="M4923 987 c-19 -24 -22 -47 -11 -72 12 -26 23 -31 32 -16 3 4 24 11
46 15 38 6 40 8 40 41 0 41 -13 44 -48 13 -20 -18 -24 -19 -19 -6 8 23 -26 44
-40 25z"/>
<path d="M2288 912 c-24 -5 -23 -19 9 -88 34 -76 47 -88 72 -74 11 5 33 10 50
10 30 0 55 20 33 28 -6 2 -14 25 -18 51 -8 64 -20 82 -38 59 -16 -22 -54 -24
-62 -4 -7 17 -23 24 -46 18z"/>
<path d="M4631 829 c-14 -40 -3 -52 44 -46 73 11 143 66 74 60 -62 -6 -75 -6
-91 1 -13 6 -20 2 -27 -15z"/>
<path d="M4017 802 c-25 -27 -22 -78 6 -97 20 -14 22 -14 25 0 3 11 10 14 20
10 9 -3 45 -3 79 1 58 6 62 8 68 35 7 33 -1 69 -17 69 -5 0 -8 -6 -5 -13 4
-10 -8 -12 -50 -9 -42 3 -58 0 -74 -13 -18 -18 -19 -17 -19 8 0 32 -10 34 -33
9z"/>
<path d="M3220 671 c0 -37 5 -63 14 -70 15 -12 46 -5 46 11 0 5 5 6 10 3 6 -3
30 -3 55 1 36 5 46 11 51 30 3 13 3 31 0 40 -5 13 -9 14 -21 4 -12 -10 -22
-10 -39 -2 -19 9 -28 7 -44 -8 -20 -19 -20 -19 -27 8 -6 25 -21 42 -37 42 -5
0 -8 -26 -8 -59z"/>
<path d="M4056 623 c-2 -2 -16 -6 -32 -9 -38 -6 -86 -25 -101 -40 -14 -14 -18
-28 -5 -20 4 2 32 6 62 7 30 2 73 9 94 17 22 7 58 15 80 18 54 7 66 11 66 24
0 8 -27 10 -80 9 -45 -2 -82 -5 -84 -6z"/>
<path d="M3630 501 c-29 -8 -18 -16 26 -20 18 -1 36 4 44 13 11 14 9 16 -16
15 -16 -1 -40 -4 -54 -8z"/>
<path d="M2528 392 c-39 -5 -25 -29 20 -36 99 -15 144 -17 140 -5 -2 7 -11 16
-19 20 -22 11 -111 24 -141 21z"/>
<path d="M2782 370 c-67 -11 -19 -41 54 -34 21 2 41 7 46 12 13 13 -60 29
-100 22z"/>
<path d="M7940 3865 c-9 -11 -10 -19 -3 -26 8 -8 13 -5 18 11 9 28 2 35 -15
15z"/>
</g>
</svg>
